<svg width="428" height="926" viewBox="0 0 428 926" fill="none" xmlns="http://www.w3.org/2000/svg">
<g clip-path="url(#clip0_92_1128)">
<rect width="428" height="926" fill="white"/>
<g filter="url(#filter0_d_92_1128)">
<path d="M0 0H428V111H0V0Z" fill="white"/>
</g>
<path d="M35.3 68.275H43.425V71.975H35.3V68.275ZM35.65 75.175H44.8V79H30.75V61.5H44.475V65.325H35.65V75.175ZM47.5469 79V61.5H51.6219L58.8719 73.4H56.7219L63.7719 61.5H67.8469L67.8969 79H63.3469L63.2969 68.425H64.0719L58.7969 77.275H56.5969L51.1719 68.425H52.1219V79H47.5469ZM75.9994 69.175H84.0744V73H75.9994V69.175ZM76.3494 79H71.3994V61.5H85.1244V65.325H76.3494V79ZM98.4398 79V65.425H93.0648V61.5H108.74V65.425H103.39V79H98.4398ZM110.584 79V61.5H118.584C120.184 61.5 121.559 61.7583 122.709 62.275C123.876 62.7917 124.776 63.5417 125.409 64.525C126.042 65.4917 126.359 66.6417 126.359 67.975C126.359 69.2917 126.042 70.4333 125.409 71.4C124.776 72.35 123.876 73.0833 122.709 73.6C121.559 74.1 120.184 74.35 118.584 74.35H113.334L115.534 72.275V79H110.584ZM121.409 79L117.059 72.625H122.334L126.709 79H121.409ZM115.534 72.8L113.334 70.525H118.284C119.317 70.525 120.084 70.3 120.584 69.85C121.101 69.4 121.359 68.775 121.359 67.975C121.359 67.1583 121.101 66.525 120.584 66.075C120.084 65.625 119.317 65.4 118.284 65.4H113.334L115.534 63.125V72.8ZM126.99 79L134.715 61.5H139.59L147.34 79H142.19L136.14 63.925H138.09L132.04 79H126.99ZM131.215 75.6L132.49 71.95H141.04L142.315 75.6H131.215ZM157.224 79.35C155.841 79.35 154.557 79.1333 153.374 78.7C152.207 78.25 151.191 77.6167 150.324 76.8C149.474 75.9833 148.807 75.025 148.324 73.925C147.841 72.8083 147.599 71.5833 147.599 70.25C147.599 68.9167 147.841 67.7 148.324 66.6C148.807 65.4833 149.474 64.5167 150.324 63.7C151.191 62.8833 152.207 62.2583 153.374 61.825C154.557 61.375 155.841 61.15 157.224 61.15C158.841 61.15 160.282 61.4333 161.549 62C162.832 62.5667 163.899 63.3833 164.749 64.45L161.599 67.3C161.032 66.6333 160.407 66.125 159.724 65.775C159.057 65.425 158.307 65.25 157.474 65.25C156.757 65.25 156.099 65.3667 155.499 65.6C154.899 65.8333 154.382 66.175 153.949 66.625C153.532 67.0583 153.199 67.5833 152.949 68.2C152.716 68.8167 152.599 69.5 152.599 70.25C152.599 71 152.716 71.6833 152.949 72.3C153.199 72.9167 153.532 73.45 153.949 73.9C154.382 74.3333 154.899 74.6667 155.499 74.9C156.099 75.1333 156.757 75.25 157.474 75.25C158.307 75.25 159.057 75.075 159.724 74.725C160.407 74.375 161.032 73.8667 161.599 73.2L164.749 76.05C163.899 77.1 162.832 77.9167 161.549 78.5C160.282 79.0667 158.841 79.35 157.224 79.35ZM171.381 75.125L171.106 69.575L178.631 61.5H184.081L176.581 69.625L173.831 72.5L171.381 75.125ZM166.956 79V61.5H171.856V79H166.956ZM178.706 79L173.006 71.775L176.231 68.325L184.456 79H178.706ZM190.305 68.275H198.43V71.975H190.305V68.275ZM190.655 75.175H199.805V79H185.755V61.5H199.48V65.325H190.655V75.175ZM202.552 79V61.5H210.552C212.152 61.5 213.527 61.7583 214.677 62.275C215.843 62.7917 216.743 63.5417 217.377 64.525C218.01 65.4917 218.327 66.6417 218.327 67.975C218.327 69.2917 218.01 70.4333 217.377 71.4C216.743 72.35 215.843 73.0833 214.677 73.6C213.527 74.1 212.152 74.35 210.552 74.35H205.302L207.502 72.275V79H202.552ZM213.377 79L209.027 72.625H214.302L218.677 79H213.377ZM207.502 72.8L205.302 70.525H210.252C211.285 70.525 212.052 70.3 212.552 69.85C213.068 69.4 213.327 68.775 213.327 67.975C213.327 67.1583 213.068 66.525 212.552 66.075C212.052 65.625 211.285 65.4 210.252 65.4H205.302L207.502 63.125V72.8Z" fill="black"/>
<path d="M361 19.6998C363.612 19.7 366.124 20.7094 368.017 22.5194C368.159 22.6592 368.387 22.6574 368.527 22.5155L369.89 21.1324C369.961 21.0604 370.001 20.9629 370 20.8614C369.999 20.7599 369.959 20.6629 369.887 20.5917C364.919 15.8028 357.081 15.8028 352.113 20.5917C352.042 20.6628 352.001 20.7599 352 20.8613C351.999 20.9628 352.039 21.0603 352.11 21.1324L353.473 22.5155C353.613 22.6576 353.841 22.6594 353.984 22.5194C355.877 20.7092 358.389 19.6998 361 19.6998ZM361 24.1997C362.435 24.1996 363.819 24.7361 364.883 25.7049C365.027 25.8424 365.253 25.8395 365.394 25.6982L366.754 24.3151C366.826 24.2426 366.866 24.1441 366.865 24.0419C366.864 23.9396 366.822 23.842 366.749 23.7709C363.51 20.7403 358.494 20.7403 355.255 23.7709C355.182 23.842 355.14 23.9396 355.139 24.0419C355.138 24.1442 355.178 24.2427 355.25 24.3151L356.61 25.6982C356.75 25.8395 356.977 25.8424 357.121 25.7049C358.184 24.7368 359.567 24.2003 361 24.1997ZM363.616 27.5006C363.689 27.4288 363.729 27.3299 363.727 27.2273C363.725 27.1248 363.68 27.0276 363.605 26.9588C362.101 25.6798 359.9 25.6798 358.396 26.9588C358.32 27.0276 358.276 27.1247 358.274 27.2272C358.272 27.3298 358.312 27.4287 358.385 27.5006L360.739 29.8902C360.808 29.9605 360.902 30 361 30C361.099 30 361.193 29.9605 361.262 29.8902L363.616 27.5006Z" fill="black"/>
<path d="M376.923 20.2051C376.923 19.4971 377.497 18.9231 378.205 18.9231H395.833C396.541 18.9231 397.115 19.4971 397.115 20.2051V26.2949C397.115 27.0029 396.541 27.5769 395.833 27.5769H378.205C377.497 27.5769 376.923 27.0029 376.923 26.2949V20.2051Z" fill="black"/>
<path opacity="0.4" fill-rule="evenodd" clip-rule="evenodd" d="M378.205 17.9615H395.833C397.072 17.9615 398.077 18.966 398.077 20.2051V26.2949C398.077 27.534 397.072 28.5385 395.833 28.5385H378.205C376.966 28.5385 375.962 27.534 375.962 26.2949V20.2051C375.962 18.966 376.966 17.9615 378.205 17.9615ZM375 20.2051C375 18.435 376.435 17 378.205 17H395.833C397.603 17 399.038 18.435 399.038 20.2051V26.2949C399.038 28.065 397.603 29.5 395.833 29.5H378.205C376.435 29.5 375 28.065 375 26.2949V20.2051ZM401.603 23.25C401.603 24.2351 400.919 25.0605 400 25.2776V21.2224C400.919 21.4395 401.603 22.2649 401.603 23.25Z" fill="black"/>
<path fill-rule="evenodd" clip-rule="evenodd" d="M343.85 18C343.298 18 342.85 18.4477 342.85 19V28C342.85 28.5523 343.298 29 343.85 29H345.15C345.702 29 346.15 28.5523 346.15 28V19C346.15 18.4477 345.702 18 345.15 18H343.85ZM337.9 21.1999C337.9 20.6476 338.348 20.1999 338.9 20.1999H340.2C340.752 20.1999 341.2 20.6476 341.2 21.1999V27.9999C341.2 28.5522 340.752 28.9999 340.2 28.9999H338.9C338.348 28.9999 337.9 28.5522 337.9 27.9999V21.1999ZM333.95 22.4C333.398 22.4 332.95 22.8478 332.95 23.4V28C332.95 28.5523 333.398 29 333.95 29H335.25C335.802 29 336.25 28.5523 336.25 28V23.4C336.25 22.8478 335.802 22.4 335.25 22.4H333.95ZM329.1 29C328.492 29 328 28.5075 328 27.9V25.15C328 24.5425 328.492 24.05 329.1 24.05H330.2C330.808 24.05 331.3 24.5425 331.3 25.15V27.9C331.3 28.5075 330.808 29 330.2 29H329.1Z" fill="black"/>
<path d="M43.3499 30H45.5735V17.3174H43.3323L40.0188 19.6465V21.7295L43.2971 19.4795H43.3499V30ZM52.86 17.0977C50.1266 17.0977 48.1139 18.9346 48.1139 21.4922V21.5098C48.1139 23.8916 49.8366 25.6494 52.2799 25.6494C53.9938 25.6494 55.2594 24.7705 55.7604 23.6104H55.8131C55.8131 23.751 55.8043 23.8828 55.7955 24.0146C55.7077 26.4141 54.8551 28.3652 52.8161 28.3652C51.6823 28.3652 50.9088 27.8027 50.5661 26.9326L50.5397 26.8535H48.2897L48.3073 26.9502C48.7028 28.8662 50.4606 30.2197 52.8073 30.2197C56.0416 30.2197 57.984 27.7148 57.984 23.5225V23.5049C57.984 19.0576 55.6549 17.0977 52.86 17.0977ZM52.86 23.9004C51.4186 23.9004 50.3463 22.8721 50.3463 21.4307V21.4131C50.3463 20.042 51.4801 18.9521 52.8864 18.9521C54.3102 18.9521 55.4176 20.0508 55.4176 21.457V21.4658C55.4176 22.8809 54.3102 23.9004 52.86 23.9004ZM60.4541 21.7031C61.166 21.7031 61.7197 21.1406 61.7197 20.4287C61.7197 19.7168 61.166 19.1631 60.4541 19.1631C59.7422 19.1631 59.1797 19.7168 59.1797 20.4287C59.1797 21.1406 59.7422 21.7031 60.4541 21.7031ZM60.4541 28.1543C61.166 28.1543 61.7197 27.5918 61.7197 26.8799C61.7197 26.168 61.166 25.6143 60.4541 25.6143C59.7422 25.6143 59.1797 26.168 59.1797 26.8799C59.1797 27.5918 59.7422 28.1543 60.4541 28.1543ZM67.9164 30.2197C71.0189 30.2197 72.8998 27.6973 72.8998 23.6631V23.6455C72.8998 19.6113 71.0189 17.0977 67.9164 17.0977C64.805 17.0977 62.933 19.6113 62.933 23.6455V23.6631C62.933 27.6973 64.805 30.2197 67.9164 30.2197ZM67.9164 28.3652C66.2025 28.3652 65.2181 26.5898 65.2181 23.6631V23.6455C65.2181 20.7188 66.2025 18.9609 67.9164 18.9609C69.6214 18.9609 70.6146 20.7188 70.6146 23.6455V23.6631C70.6146 26.5898 69.6214 28.3652 67.9164 28.3652ZM74.113 30H83.0251V28.1455H77.1101V28.0488L79.905 25.3945C82.1374 23.25 82.8318 22.2393 82.8318 20.7451V20.7275C82.8318 18.6357 81.0564 17.0977 78.5163 17.0977C75.9411 17.0977 73.99 18.7588 73.99 21.0791V21.1406H76.1169V21.0791C76.1433 19.8574 77.1277 18.917 78.5339 18.917C79.7556 18.917 80.6081 19.7256 80.6169 20.8594V20.877C80.6169 21.8174 80.2566 22.459 78.5954 24.085L74.113 28.4531V30Z" fill="black"/>
<circle cx="372.5" cy="70.5" r="3.5" fill="black"/>
<circle cx="384.5" cy="70.5" r="3.5" fill="black"/>
<circle cx="396.5" cy="70.5" r="3.5" fill="black"/>
<path fill-rule="evenodd" clip-rule="evenodd" d="M197.238 158.929C178.861 165.018 166.193 175.991 158.284 192.676C151.239 207.541 151.239 227.489 158.284 242.355C176.605 281.008 226.427 290.128 256.272 260.291C273.897 242.67 279.058 214.563 268.683 192.676C258.846 171.925 239.135 158.459 216.616 157.102C209.997 156.705 201.55 157.501 197.238 158.929ZM193.539 167.875C174.207 175.422 159.968 196.362 159.968 217.246C159.968 246.291 184.575 271.015 213.484 271.015C242.264 271.015 267 246.287 267 217.515C267 203.181 261.744 190.994 250.878 180.132C235.179 164.435 213.967 159.903 193.539 167.875ZM200.194 181.794C185.285 186.546 173.274 206.462 175.827 222.198C178.545 238.932 188.274 249.782 204.439 254.104C232.629 261.641 257.732 235.333 249.703 206.664C243.938 186.086 221.733 174.929 200.194 181.794ZM200.965 189.632C181.682 198.028 177.127 223.654 192.234 238.759C204.632 251.152 222.335 251.152 234.733 238.759C258.454 215.043 231.767 176.219 200.965 189.632ZM206.452 204.501C195.896 209.603 196.821 226.366 207.914 230.959C224.934 238.006 236.71 212.02 219.953 204.389C214.302 201.813 211.974 201.832 206.452 204.501Z" fill="black"/>
<path fill-rule="evenodd" clip-rule="evenodd" d="M41.0648 584.526C36.0529 586.187 32.598 589.179 30.441 593.73C28.5197 597.784 28.5197 603.224 30.441 607.279C35.4378 617.82 49.0255 620.308 57.165 612.17C61.972 607.364 63.3794 599.699 60.55 593.73C57.8671 588.071 52.4914 584.398 46.3499 584.028C44.5448 583.919 42.2408 584.137 41.0648 584.526ZM40.0562 586.966C34.7836 589.024 30.9003 594.735 30.9003 600.431C30.9003 608.352 37.6115 615.095 45.4955 615.095C53.3447 615.095 60.0908 608.351 60.0908 600.504C60.0908 596.595 58.6574 593.271 55.694 590.309C51.4124 586.028 45.6274 584.792 40.0562 586.966ZM41.8712 590.762C37.8049 592.058 34.5293 597.49 35.2257 601.781C35.9669 606.345 38.6201 609.304 43.0289 610.483C50.717 612.539 57.5632 605.363 55.3734 597.545C53.8013 591.932 47.7453 588.89 41.8712 590.762ZM42.0813 592.9C36.8223 595.189 35.5801 602.178 39.7002 606.298C43.0816 609.678 47.9095 609.678 51.2909 606.298C57.7603 599.83 50.4819 589.241 42.0813 592.9ZM43.5778 596.955C40.6989 598.346 40.9512 602.918 43.9766 604.171C48.6184 606.092 51.8299 599.005 47.26 596.924C45.7186 596.222 45.0837 596.227 43.5778 596.955Z" fill="black"/>
<path fill-rule="evenodd" clip-rule="evenodd" d="M41.0648 633.526C36.0529 635.187 32.598 638.179 30.441 642.73C28.5197 646.784 28.5197 652.224 30.441 656.279C35.4378 666.82 49.0255 669.308 57.165 661.17C61.972 656.364 63.3794 648.699 60.55 642.73C57.8671 637.071 52.4914 633.398 46.3499 633.028C44.5448 632.919 42.2408 633.137 41.0648 633.526ZM40.0562 635.966C34.7836 638.024 30.9003 643.735 30.9003 649.431C30.9003 657.352 37.6115 664.095 45.4955 664.095C53.3447 664.095 60.0908 657.351 60.0908 649.504C60.0908 645.595 58.6574 642.271 55.694 639.309C51.4124 635.028 45.6274 633.792 40.0562 635.966ZM41.8712 639.762C37.8049 641.058 34.5293 646.49 35.2257 650.781C35.9669 655.345 38.6201 658.304 43.0289 659.483C50.717 661.539 57.5632 654.363 55.3734 646.545C53.8013 640.932 47.7453 637.89 41.8712 639.762ZM42.0813 641.9C36.8223 644.189 35.5801 651.178 39.7002 655.298C43.0816 658.678 47.9095 658.678 51.2909 655.298C57.7603 648.83 50.4819 638.241 42.0813 641.9ZM43.5778 645.955C40.6989 647.346 40.9512 651.918 43.9766 653.171C48.6184 655.092 51.8299 648.005 47.26 645.924C45.7186 645.222 45.0837 645.227 43.5778 645.955Z" fill="black"/>
<path fill-rule="evenodd" clip-rule="evenodd" d="M41.0648 682.526C36.0529 684.187 32.598 687.179 30.441 691.73C28.5197 695.784 28.5197 701.224 30.441 705.279C35.4378 715.82 49.0255 718.308 57.165 710.17C61.972 705.364 63.3794 697.699 60.55 691.73C57.8671 686.071 52.4914 682.398 46.3499 682.028C44.5448 681.919 42.2408 682.137 41.0648 682.526ZM40.0562 684.966C34.7836 687.024 30.9003 692.735 30.9003 698.431C30.9003 706.352 37.6115 713.095 45.4955 713.095C53.3447 713.095 60.0908 706.351 60.0908 698.504C60.0908 694.595 58.6574 691.271 55.694 688.309C51.4124 684.028 45.6274 682.792 40.0562 684.966ZM41.8712 688.762C37.8049 690.058 34.5293 695.49 35.2257 699.781C35.9669 704.345 38.6201 707.304 43.0289 708.483C50.717 710.539 57.5632 703.363 55.3734 695.545C53.8013 689.932 47.7453 686.89 41.8712 688.762ZM42.0813 690.9C36.8223 693.189 35.5801 700.178 39.7002 704.298C43.0816 707.678 47.9095 707.678 51.2909 704.298C57.7603 697.83 50.4819 687.241 42.0813 690.9ZM43.5778 694.955C40.6989 696.346 40.9512 700.918 43.9766 702.171C48.6184 704.092 51.8299 697.005 47.26 694.924C45.7186 694.222 45.0837 694.227 43.5778 694.955Z" fill="black"/>
<path fill-rule="evenodd" clip-rule="evenodd" d="M41.0648 731.526C36.0529 733.187 32.598 736.179 30.441 740.73C28.5197 744.784 28.5197 750.224 30.441 754.279C35.4378 764.82 49.0255 767.308 57.165 759.17C61.972 754.364 63.3794 746.699 60.55 740.73C57.8671 735.071 52.4914 731.398 46.3499 731.028C44.5448 730.919 42.2408 731.137 41.0648 731.526ZM40.0562 733.966C34.7836 736.024 30.9003 741.735 30.9003 747.431C30.9003 755.352 37.6115 762.095 45.4955 762.095C53.3447 762.095 60.0908 755.351 60.0908 747.504C60.0908 743.595 58.6574 740.271 55.694 737.309C51.4124 733.028 45.6274 731.792 40.0562 733.966ZM41.8712 737.762C37.8049 739.058 34.5293 744.49 35.2257 748.781C35.9669 753.345 38.6201 756.304 43.0289 757.483C50.717 759.539 57.5632 752.363 55.3734 744.545C53.8013 738.932 47.7453 735.89 41.8712 737.762ZM42.0813 739.9C36.8223 742.189 35.5801 749.178 39.7002 753.298C43.0816 756.678 47.9095 756.678 51.2909 753.298C57.7603 746.83 50.4819 736.241 42.0813 739.9ZM43.5778 743.955C40.6989 745.346 40.9512 749.918 43.9766 751.171C48.6184 753.092 51.8299 746.005 47.26 743.924C45.7186 743.222 45.0837 743.227 43.5778 743.955Z" fill="black"/>
<path fill-rule="evenodd" clip-rule="evenodd" d="M41.0648 780.526C36.0529 782.187 32.598 785.179 30.441 789.73C28.5197 793.784 28.5197 799.224 30.441 803.279C35.4378 813.82 49.0255 816.308 57.165 808.17C61.972 803.364 63.3794 795.699 60.55 789.73C57.8671 784.071 52.4914 780.398 46.3499 780.028C44.5448 779.919 42.2408 780.137 41.0648 780.526ZM40.0562 782.966C34.7836 785.024 30.9003 790.735 30.9003 796.431C30.9003 804.352 37.6115 811.095 45.4955 811.095C53.3447 811.095 60.0908 804.351 60.0908 796.504C60.0908 792.595 58.6574 789.271 55.694 786.309C51.4124 782.028 45.6274 780.792 40.0562 782.966ZM41.8712 786.762C37.8049 788.058 34.5293 793.49 35.2257 797.781C35.9669 802.345 38.6201 805.304 43.0289 806.483C50.717 808.539 57.5632 801.363 55.3734 793.545C53.8013 787.932 47.7453 784.89 41.8712 786.762ZM42.0813 788.9C36.8223 791.189 35.5801 798.178 39.7002 802.298C43.0816 805.678 47.9095 805.678 51.2909 802.298C57.7603 795.83 50.4819 785.241 42.0813 788.9ZM43.5778 792.955C40.6989 794.346 40.9512 798.918 43.9766 800.171C48.6184 802.092 51.8299 795.005 47.26 792.924C45.7186 792.222 45.0837 792.227 43.5778 792.955Z" fill="black"/>
<path d="M114.95 372V369.45L129.5 355.2C130.833 353.9 131.833 352.767 132.5 351.8C133.167 350.8 133.617 349.867 133.85 349C134.083 348.133 134.2 347.317 134.2 346.55C134.2 344.517 133.5 342.917 132.1 341.75C130.733 340.583 128.7 340 126 340C123.933 340 122.1 340.317 120.5 340.95C118.933 341.583 117.583 342.567 116.45 343.9L113.9 341.7C115.267 340.1 117.017 338.867 119.15 338C121.283 337.133 123.667 336.7 126.3 336.7C128.667 336.7 130.717 337.083 132.45 337.85C134.183 338.583 135.517 339.667 136.45 341.1C137.417 342.533 137.9 344.217 137.9 346.15C137.9 347.283 137.733 348.4 137.4 349.5C137.1 350.6 136.533 351.767 135.7 353C134.9 354.2 133.717 355.567 132.15 357.1L118.8 370.2L117.8 368.8H139.5V372H114.95ZM142.295 362.8V360.2L160.845 337H164.845L146.445 360.2L144.495 359.6H172.645V362.8H142.295ZM162.045 372V362.8L162.145 359.6V351.5H165.645V372H162.045ZM185.669 372.3C183.136 372.3 180.736 371.9 178.469 371.1C176.236 370.267 174.436 369.167 173.069 367.8L174.819 364.95C175.952 366.117 177.469 367.083 179.369 367.85C181.302 368.617 183.402 369 185.669 369C188.569 369 190.786 368.367 192.319 367.1C193.886 365.833 194.669 364.133 194.669 362C194.669 359.867 193.902 358.167 192.369 356.9C190.869 355.633 188.486 355 185.219 355H182.719V352.35L193.519 338.8L194.019 340.2H174.519V337H197.019V339.55L186.219 353.1L184.469 351.95H185.819C190.019 351.95 193.152 352.883 195.219 354.75C197.319 356.617 198.369 359.017 198.369 361.95C198.369 363.917 197.902 365.683 196.969 367.25C196.036 368.817 194.619 370.05 192.719 370.95C190.852 371.85 188.502 372.3 185.669 372.3ZM206.142 372.25C205.408 372.25 204.775 371.983 204.242 371.45C203.742 370.917 203.492 370.267 203.492 369.5C203.492 368.7 203.742 368.05 204.242 367.55C204.775 367.05 205.408 366.8 206.142 366.8C206.875 366.8 207.492 367.05 207.992 367.55C208.525 368.05 208.792 368.7 208.792 369.5C208.792 370.267 208.525 370.917 207.992 371.45C207.492 371.983 206.875 372.25 206.142 372.25ZM219.602 372L234.702 338.6L235.802 340.2H214.152L216.002 338.45V346.75H212.452V337H238.152V339.55L223.502 372H219.602ZM258.331 381.7V345.75H261.881V360.6C261.881 363.4 262.564 365.517 263.931 366.95C265.331 368.35 267.298 369.05 269.831 369.05C271.664 369.05 273.248 368.683 274.581 367.95C275.914 367.183 276.948 366.083 277.681 364.65C278.414 363.217 278.781 361.5 278.781 359.5V345.75H282.331V372H278.931V364.7L279.531 365.65C279.031 367.15 278.281 368.4 277.281 369.4C276.314 370.367 275.198 371.083 273.931 371.55C272.664 372.017 271.314 372.25 269.881 372.25C267.814 372.25 266.031 371.833 264.531 371C263.064 370.133 261.948 368.883 261.181 367.25L261.881 365.65V381.7H258.331ZM299.768 372V340.2H287.468V337H315.768V340.2H303.468V372H299.768Z" fill="black"/>
<path d="M72.585 601V600.235L76.95 595.96C77.35 595.57 77.65 595.23 77.85 594.94C78.05 594.64 78.185 594.36 78.255 594.1C78.325 593.84 78.36 593.595 78.36 593.365C78.36 592.755 78.15 592.275 77.73 591.925C77.32 591.575 76.71 591.4 75.9 591.4C75.28 591.4 74.73 591.495 74.25 591.685C73.78 591.875 73.375 592.17 73.035 592.57L72.27 591.91C72.68 591.43 73.205 591.06 73.845 590.8C74.485 590.54 75.2 590.41 75.99 590.41C76.7 590.41 77.315 590.525 77.835 590.755C78.355 590.975 78.755 591.3 79.035 591.73C79.325 592.16 79.47 592.665 79.47 593.245C79.47 593.585 79.42 593.92 79.32 594.25C79.23 594.58 79.06 594.93 78.81 595.3C78.57 595.66 78.215 596.07 77.745 596.53L73.74 600.46L73.44 600.04H79.95V601H72.585ZM80.7885 598.24V597.46L86.3535 590.5H87.5535L82.0335 597.46L81.4485 597.28H89.8935V598.24H80.7885ZM86.7135 601V598.24L86.7435 597.28V594.85H87.7935V601H86.7135ZM93.8007 601.09C93.0407 601.09 92.3207 600.97 91.6407 600.73C90.9707 600.48 90.4307 600.15 90.0207 599.74L90.5457 598.885C90.8857 599.235 91.3407 599.525 91.9107 599.755C92.4907 599.985 93.1207 600.1 93.8007 600.1C94.6707 600.1 95.3357 599.91 95.7957 599.53C96.2657 599.15 96.5007 598.64 96.5007 598C96.5007 597.36 96.2707 596.85 95.8107 596.47C95.3607 596.09 94.6457 595.9 93.6657 595.9H92.9157V595.105L96.1557 591.04L96.3057 591.46H90.4557V590.5H97.2057V591.265L93.9657 595.33L93.4407 594.985H93.8457C95.1057 594.985 96.0457 595.265 96.6657 595.825C97.2957 596.385 97.6107 597.105 97.6107 597.985C97.6107 598.575 97.4707 599.105 97.1907 599.575C96.9107 600.045 96.4857 600.415 95.9157 600.685C95.3557 600.955 94.6507 601.09 93.8007 601.09ZM99.9425 601.075C99.7225 601.075 99.5325 600.995 99.3725 600.835C99.2225 600.675 99.1475 600.48 99.1475 600.25C99.1475 600.01 99.2225 599.815 99.3725 599.665C99.5325 599.515 99.7225 599.44 99.9425 599.44C100.163 599.44 100.348 599.515 100.498 599.665C100.658 599.815 100.738 600.01 100.738 600.25C100.738 600.48 100.658 600.675 100.498 600.835C100.348 600.995 100.163 601.075 99.9425 601.075ZM103.98 601L108.51 590.98L108.84 591.46H102.345L102.9 590.935V593.425H101.835V590.5H109.545V591.265L105.15 601H103.98ZM115.599 603.91V593.125H116.664V597.58C116.664 598.42 116.869 599.055 117.279 599.485C117.699 599.905 118.289 600.115 119.049 600.115C119.599 600.115 120.074 600.005 120.474 599.785C120.874 599.555 121.184 599.225 121.404 598.795C121.624 598.365 121.734 597.85 121.734 597.25V593.125H122.799V601H121.779V598.81L121.959 599.095C121.809 599.545 121.584 599.92 121.284 600.22C120.994 600.51 120.659 600.725 120.279 600.865C119.899 601.005 119.494 601.075 119.064 601.075C118.444 601.075 117.909 600.95 117.459 600.7C117.019 600.44 116.684 600.065 116.454 599.575L116.664 599.095V603.91H115.599ZM128.03 601V591.46H124.34V590.5H132.83V591.46H129.14V601H128.03Z" fill="black"/>
<path d="M74.625 650L79.155 639.98L79.485 640.46H72.99L73.545 639.935V642.425H72.48V639.5H80.19V640.265L75.795 650H74.625ZM84.6497 650.09C83.8997 650.09 83.1847 649.97 82.5047 649.73C81.8247 649.48 81.2847 649.15 80.8847 648.74L81.4097 647.885C81.7397 648.235 82.1897 648.525 82.7597 648.755C83.3397 648.985 83.9647 649.1 84.6347 649.1C85.5247 649.1 86.1997 648.905 86.6597 648.515C87.1297 648.115 87.3647 647.595 87.3647 646.955C87.3647 646.505 87.2547 646.12 87.0347 645.8C86.8247 645.47 86.4647 645.215 85.9547 645.035C85.4447 644.855 84.7447 644.765 83.8547 644.765H81.6197L82.1597 639.5H87.9047V640.46H82.5947L83.1497 639.935L82.6847 644.345L82.1297 643.805H84.0947C85.1547 643.805 86.0047 643.935 86.6447 644.195C87.2847 644.455 87.7447 644.82 88.0247 645.29C88.3147 645.75 88.4597 646.29 88.4597 646.91C88.4597 647.5 88.3197 648.04 88.0397 648.53C87.7597 649.01 87.3397 649.39 86.7797 649.67C86.2197 649.95 85.5097 650.09 84.6497 650.09ZM90.6408 650.075C90.4208 650.075 90.2308 649.995 90.0708 649.835C89.9208 649.675 89.8458 649.48 89.8458 649.25C89.8458 649.01 89.9208 648.815 90.0708 648.665C90.2308 648.515 90.4208 648.44 90.6408 648.44C90.8608 648.44 91.0458 648.515 91.1958 648.665C91.3558 648.815 91.4358 649.01 91.4358 649.25C91.4358 649.48 91.3558 649.675 91.1958 649.835C91.0458 649.995 90.8608 650.075 90.6408 650.075ZM92.6537 647.24V646.46L98.2187 639.5H99.4187L93.8987 646.46L93.3137 646.28H101.759V647.24H92.6537ZM98.5787 650V647.24L98.6087 646.28V643.85H99.6587V650H98.5787ZM107.381 652.91V642.125H108.446V646.58C108.446 647.42 108.651 648.055 109.061 648.485C109.481 648.905 110.071 649.115 110.831 649.115C111.381 649.115 111.856 649.005 112.256 648.785C112.656 648.555 112.966 648.225 113.186 647.795C113.406 647.365 113.516 646.85 113.516 646.25V642.125H114.581V650H113.561V647.81L113.741 648.095C113.591 648.545 113.366 648.92 113.066 649.22C112.776 649.51 112.441 649.725 112.061 649.865C111.681 650.005 111.276 650.075 110.846 650.075C110.226 650.075 109.691 649.95 109.241 649.7C108.801 649.44 108.466 649.065 108.236 648.575L108.446 648.095V652.91H107.381ZM119.812 650V640.46H116.123V639.5H124.613V640.46H120.923V650H119.812Z" fill="black"/>
<path d="M74.61 699V688.95L75.09 689.46H72.135V688.5H75.69V699H74.61ZM78.0049 699V698.235L82.3699 693.96C82.7699 693.57 83.0699 693.23 83.2699 692.94C83.4699 692.64 83.6049 692.36 83.6749 692.1C83.7449 691.84 83.7799 691.595 83.7799 691.365C83.7799 690.755 83.5699 690.275 83.1499 689.925C82.7399 689.575 82.1299 689.4 81.3199 689.4C80.6999 689.4 80.1499 689.495 79.6699 689.685C79.1999 689.875 78.7949 690.17 78.4549 690.57L77.6899 689.91C78.0999 689.43 78.6249 689.06 79.2649 688.8C79.9049 688.54 80.6199 688.41 81.4099 688.41C82.1199 688.41 82.7349 688.525 83.2549 688.755C83.7749 688.975 84.1749 689.3 84.4549 689.73C84.7449 690.16 84.8899 690.665 84.8899 691.245C84.8899 691.585 84.8399 691.92 84.7399 692.25C84.6499 692.58 84.4799 692.93 84.2299 693.3C83.9899 693.66 83.6349 694.07 83.1649 694.53L79.1599 698.46L78.8599 698.04H85.3699V699H78.0049ZM86.2084 696.24V695.46L91.7734 688.5H92.9734L87.4534 695.46L86.8684 695.28H95.3134V696.24H86.2084ZM92.1334 699V696.24L92.1634 695.28V692.85H93.2134V699H92.1334ZM97.4084 699.075C97.1884 699.075 96.9984 698.995 96.8384 698.835C96.6884 698.675 96.6134 698.48 96.6134 698.25C96.6134 698.01 96.6884 697.815 96.8384 697.665C96.9984 697.515 97.1884 697.44 97.4084 697.44C97.6284 697.44 97.8134 697.515 97.9634 697.665C98.1234 697.815 98.2034 698.01 98.2034 698.25C98.2034 698.48 98.1234 698.675 97.9634 698.835C97.8134 698.995 97.6284 699.075 97.4084 699.075ZM103.801 699.09C102.991 699.09 102.271 698.88 101.641 698.46C101.011 698.03 100.516 697.42 100.156 696.63C99.7959 695.83 99.6159 694.87 99.6159 693.75C99.6159 692.63 99.7959 691.675 100.156 690.885C100.516 690.085 101.011 689.475 101.641 689.055C102.271 688.625 102.991 688.41 103.801 688.41C104.611 688.41 105.331 688.625 105.961 689.055C106.591 689.475 107.086 690.085 107.446 690.885C107.816 691.675 108.001 692.63 108.001 693.75C108.001 694.87 107.816 695.83 107.446 696.63C107.086 697.42 106.591 698.03 105.961 698.46C105.331 698.88 104.611 699.09 103.801 699.09ZM103.801 698.1C104.421 698.1 104.961 697.935 105.421 697.605C105.881 697.265 106.241 696.775 106.501 696.135C106.761 695.485 106.891 694.69 106.891 693.75C106.891 692.81 106.761 692.02 106.501 691.38C106.241 690.73 105.881 690.24 105.421 689.91C104.961 689.57 104.421 689.4 103.801 689.4C103.201 689.4 102.666 689.57 102.196 689.91C101.726 690.24 101.361 690.73 101.101 691.38C100.841 692.02 100.711 692.81 100.711 693.75C100.711 694.69 100.841 695.485 101.101 696.135C101.361 696.775 101.726 697.265 102.196 697.605C102.666 697.935 103.201 698.1 103.801 698.1ZM114.178 701.91V691.125H115.243V695.58C115.243 696.42 115.448 697.055 115.858 697.485C116.278 697.905 116.868 698.115 117.628 698.115C118.178 698.115 118.653 698.005 119.053 697.785C119.453 697.555 119.763 697.225 119.983 696.795C120.203 696.365 120.313 695.85 120.313 695.25V691.125H121.378V699H120.358V696.81L120.538 697.095C120.388 697.545 120.163 697.92 119.863 698.22C119.573 698.51 119.238 698.725 118.858 698.865C118.478 699.005 118.073 699.075 117.643 699.075C117.023 699.075 116.488 698.95 116.038 698.7C115.598 698.44 115.263 698.065 115.033 697.575L115.243 697.095V701.91H114.178ZM126.609 699V689.46H122.919V688.5H131.409V689.46H127.719V699H126.609Z" fill="black"/>
<path d="M77.085 748.09C76.155 748.09 75.37 747.885 74.73 747.475C74.09 747.055 73.605 746.455 73.275 745.675C72.945 744.885 72.78 743.94 72.78 742.84C72.78 741.65 72.98 740.655 73.38 739.855C73.79 739.045 74.355 738.435 75.075 738.025C75.795 737.615 76.63 737.41 77.58 737.41C78.05 737.41 78.5 737.455 78.93 737.545C79.36 737.635 79.74 737.78 80.07 737.98L79.635 738.85C79.365 738.67 79.055 738.545 78.705 738.475C78.355 738.395 77.985 738.355 77.595 738.355C76.465 738.355 75.56 738.715 74.88 739.435C74.21 740.155 73.875 741.23 73.875 742.66C73.875 742.88 73.885 743.155 73.905 743.485C73.935 743.805 73.995 744.125 74.085 744.445L73.71 744.16C73.82 743.64 74.035 743.2 74.355 742.84C74.675 742.47 75.075 742.19 75.555 742C76.035 741.81 76.56 741.715 77.13 741.715C77.83 741.715 78.445 741.845 78.975 742.105C79.505 742.365 79.92 742.73 80.22 743.2C80.52 743.67 80.67 744.225 80.67 744.865C80.67 745.515 80.515 746.085 80.205 746.575C79.895 747.055 79.465 747.43 78.915 747.7C78.375 747.96 77.765 748.09 77.085 748.09ZM77.04 747.175C77.54 747.175 77.98 747.085 78.36 746.905C78.75 746.715 79.055 746.45 79.275 746.11C79.495 745.76 79.605 745.355 79.605 744.895C79.605 744.205 79.365 743.655 78.885 743.245C78.415 742.835 77.775 742.63 76.965 742.63C76.425 742.63 75.955 742.73 75.555 742.93C75.155 743.13 74.84 743.405 74.61 743.755C74.38 744.095 74.265 744.485 74.265 744.925C74.265 745.305 74.37 745.67 74.58 746.02C74.79 746.36 75.1 746.64 75.51 746.86C75.93 747.07 76.44 747.175 77.04 747.175ZM83.6484 748L88.1784 737.98L88.5084 738.46H82.0134L82.5684 737.935V740.425H81.5034V737.5H89.2134V738.265L84.8184 748H83.6484ZM90.6554 748.075C90.4354 748.075 90.2454 747.995 90.0854 747.835C89.9354 747.675 89.8604 747.48 89.8604 747.25C89.8604 747.01 89.9354 746.815 90.0854 746.665C90.2454 746.515 90.4354 746.44 90.6554 746.44C90.8754 746.44 91.0604 746.515 91.2104 746.665C91.3704 746.815 91.4504 747.01 91.4504 747.25C91.4504 747.48 91.3704 747.675 91.2104 747.835C91.0604 747.995 90.8754 748.075 90.6554 748.075ZM92.6684 745.24V744.46L98.2334 737.5H99.4334L93.9134 744.46L93.3284 744.28H101.773V745.24H92.6684ZM98.5934 748V745.24L98.6234 744.28V741.85H99.6734V748H98.5934ZM107.396 750.91V740.125H108.461V744.58C108.461 745.42 108.666 746.055 109.076 746.485C109.496 746.905 110.086 747.115 110.846 747.115C111.396 747.115 111.871 747.005 112.271 746.785C112.671 746.555 112.981 746.225 113.201 745.795C113.421 745.365 113.531 744.85 113.531 744.25V740.125H114.596V748H113.576V745.81L113.756 746.095C113.606 746.545 113.381 746.92 113.081 747.22C112.791 747.51 112.456 747.725 112.076 747.865C111.696 748.005 111.291 748.075 110.861 748.075C110.241 748.075 109.706 747.95 109.256 747.7C108.816 747.44 108.481 747.065 108.251 746.575L108.461 746.095V750.91H107.396ZM119.827 748V738.46H116.137V737.5H124.627V738.46H120.937V748H119.827Z" fill="black"/>
<path d="M74.625 797L79.155 786.98L79.485 787.46H72.99L73.545 786.935V789.425H72.48V786.5H80.19V787.265L75.795 797H74.625ZM84.6162 797.09C83.8562 797.09 83.1362 796.97 82.4562 796.73C81.7862 796.48 81.2462 796.15 80.8362 795.74L81.3612 794.885C81.7012 795.235 82.1562 795.525 82.7262 795.755C83.3062 795.985 83.9362 796.1 84.6162 796.1C85.4862 796.1 86.1512 795.91 86.6112 795.53C87.0812 795.15 87.3162 794.64 87.3162 794C87.3162 793.36 87.0862 792.85 86.6262 792.47C86.1762 792.09 85.4612 791.9 84.4812 791.9H83.7312V791.105L86.9712 787.04L87.1212 787.46H81.2712V786.5H88.0212V787.265L84.7812 791.33L84.2562 790.985H84.6612C85.9212 790.985 86.8612 791.265 87.4812 791.825C88.1112 792.385 88.4262 793.105 88.4262 793.985C88.4262 794.575 88.2862 795.105 88.0062 795.575C87.7262 796.045 87.3012 796.415 86.7312 796.685C86.1712 796.955 85.4662 797.09 84.6162 797.09ZM90.758 797.075C90.538 797.075 90.348 796.995 90.188 796.835C90.038 796.675 89.963 796.48 89.963 796.25C89.963 796.01 90.038 795.815 90.188 795.665C90.348 795.515 90.538 795.44 90.758 795.44C90.978 795.44 91.163 795.515 91.313 795.665C91.473 795.815 91.553 796.01 91.553 796.25C91.553 796.48 91.473 796.675 91.313 796.835C91.163 796.995 90.978 797.075 90.758 797.075ZM94.7809 797V786.95L95.2609 787.46H92.3059V786.5H95.8609V797H94.7809ZM103.002 799.91V789.125H104.067V793.58C104.067 794.42 104.272 795.055 104.682 795.485C105.102 795.905 105.692 796.115 106.452 796.115C107.002 796.115 107.477 796.005 107.877 795.785C108.277 795.555 108.587 795.225 108.807 794.795C109.027 794.365 109.137 793.85 109.137 793.25V789.125H110.202V797H109.182V794.81L109.362 795.095C109.212 795.545 108.987 795.92 108.687 796.22C108.397 796.51 108.062 796.725 107.682 796.865C107.302 797.005 106.897 797.075 106.467 797.075C105.847 797.075 105.312 796.95 104.862 796.7C104.422 796.44 104.087 796.065 103.857 795.575L104.067 795.095V799.91H103.002ZM115.433 797V787.46H111.743V786.5H120.233V787.46H116.543V797H115.433Z" fill="black"/>
<path d="M72.39 613V612.49L75.3 609.64C75.5667 609.38 75.7667 609.153 75.9 608.96C76.0333 608.76 76.1233 608.573 76.17 608.4C76.2167 608.227 76.24 608.063 76.24 607.91C76.24 607.503 76.1 607.183 75.82 606.95C75.5467 606.717 75.14 606.6 74.6 606.6C74.1867 606.6 73.82 606.663 73.5 606.79C73.1867 606.917 72.9167 607.113 72.69 607.38L72.18 606.94C72.4533 606.62 72.8033 606.373 73.23 606.2C73.6567 606.027 74.1333 605.94 74.66 605.94C75.1333 605.94 75.5433 606.017 75.89 606.17C76.2367 606.317 76.5033 606.533 76.69 606.82C76.8833 607.107 76.98 607.443 76.98 607.83C76.98 608.057 76.9467 608.28 76.88 608.5C76.82 608.72 76.7067 608.953 76.54 609.2C76.38 609.44 76.1433 609.713 75.83 610.02L73.16 612.64L72.96 612.36H77.3V613H72.39ZM80.0836 613.05C79.6503 613.05 79.2403 612.99 78.8536 612.87C78.4669 612.743 78.1636 612.587 77.9436 612.4L78.2636 611.84C78.4769 612 78.7503 612.14 79.0836 612.26C79.4169 612.373 79.7669 612.43 80.1336 612.43C80.6336 612.43 80.9936 612.353 81.2136 612.2C81.4336 612.04 81.5436 611.83 81.5436 611.57C81.5436 611.377 81.4803 611.227 81.3536 611.12C81.2336 611.007 81.0736 610.923 80.8736 610.87C80.6736 610.81 80.4503 610.76 80.2036 610.72C79.9569 610.68 79.7103 610.633 79.4636 610.58C79.2236 610.527 79.0036 610.45 78.8036 610.35C78.6036 610.243 78.4403 610.1 78.3136 609.92C78.1936 609.74 78.1336 609.5 78.1336 609.2C78.1336 608.913 78.2136 608.657 78.3736 608.43C78.5336 608.203 78.7669 608.027 79.0736 607.9C79.3869 607.767 79.7669 607.7 80.2136 607.7C80.5536 607.7 80.8936 607.747 81.2336 607.84C81.5736 607.927 81.8536 608.043 82.0736 608.19L81.7636 608.76C81.5303 608.6 81.2803 608.487 81.0136 608.42C80.7469 608.347 80.4803 608.31 80.2136 608.31C79.7403 608.31 79.3903 608.393 79.1636 608.56C78.9436 608.72 78.8336 608.927 78.8336 609.18C78.8336 609.38 78.8936 609.537 79.0136 609.65C79.1403 609.763 79.3036 609.853 79.5036 609.92C79.7103 609.98 79.9336 610.03 80.1736 610.07C80.4203 610.11 80.6636 610.16 80.9036 610.22C81.1503 610.273 81.3736 610.35 81.5736 610.45C81.7803 610.543 81.9436 610.68 82.0636 610.86C82.1903 611.033 82.2536 611.263 82.2536 611.55C82.2536 611.857 82.1669 612.123 81.9936 612.35C81.8269 612.57 81.5803 612.743 81.2536 612.87C80.9336 612.99 80.5436 613.05 80.0836 613.05Z" fill="#969696"/>
<path d="M74.61 662.06C74.1033 662.06 73.6233 661.98 73.17 661.82C72.7233 661.653 72.3633 661.433 72.09 661.16L72.44 660.59C72.6667 660.823 72.97 661.017 73.35 661.17C73.7367 661.323 74.1567 661.4 74.61 661.4C75.19 661.4 75.6333 661.273 75.94 661.02C76.2533 660.767 76.41 660.427 76.41 660C76.41 659.573 76.2567 659.233 75.95 658.98C75.65 658.727 75.1733 658.6 74.52 658.6H74.02V658.07L76.18 655.36L76.28 655.64H72.38V655H76.88V655.51L74.72 658.22L74.37 657.99H74.64C75.48 657.99 76.1067 658.177 76.52 658.55C76.94 658.923 77.15 659.403 77.15 659.99C77.15 660.383 77.0567 660.737 76.87 661.05C76.6833 661.363 76.4 661.61 76.02 661.79C75.6467 661.97 75.1767 662.06 74.61 662.06ZM85.1945 656.7C85.6212 656.7 85.9912 656.783 86.3045 656.95C86.6245 657.11 86.8712 657.357 87.0445 657.69C87.2245 658.023 87.3145 658.443 87.3145 658.95V662H86.6045V659.02C86.6045 658.467 86.4712 658.05 86.2045 657.77C85.9445 657.483 85.5745 657.34 85.0945 657.34C84.7345 657.34 84.4212 657.417 84.1545 657.57C83.8945 657.717 83.6912 657.933 83.5445 658.22C83.4045 658.5 83.3345 658.84 83.3345 659.24V662H82.6245V659.02C82.6245 658.467 82.4912 658.05 82.2245 657.77C81.9579 657.483 81.5845 657.34 81.1045 657.34C80.7512 657.34 80.4412 657.417 80.1745 657.57C79.9079 657.717 79.7012 657.933 79.5545 658.22C79.4145 658.5 79.3445 658.84 79.3445 659.24V662H78.6345V656.75H79.3145V658.17L79.2045 657.92C79.3645 657.54 79.6212 657.243 79.9745 657.03C80.3345 656.81 80.7579 656.7 81.2445 656.7C81.7579 656.7 82.1945 656.83 82.5545 657.09C82.9145 657.343 83.1479 657.727 83.2545 658.24L82.9745 658.13C83.1279 657.703 83.3979 657.36 83.7845 657.1C84.1779 656.833 84.6479 656.7 85.1945 656.7Z" fill="#969696"/>
<path d="M73.74 711V704.3L74.06 704.64H72.09V704H74.46V711H73.74ZM79.2833 705.7C79.7099 705.7 80.0833 705.783 80.4033 705.95C80.7299 706.11 80.9833 706.357 81.1633 706.69C81.3499 707.023 81.4433 707.443 81.4433 707.95V711H80.7333V708.02C80.7333 707.467 80.5933 707.05 80.3133 706.77C80.0399 706.483 79.6533 706.34 79.1533 706.34C78.7799 706.34 78.4533 706.417 78.1733 706.57C77.8999 706.717 77.6866 706.933 77.5333 707.22C77.3866 707.5 77.3133 707.84 77.3133 708.24V711H76.6033V703.58H77.3133V707.19L77.1733 706.92C77.3399 706.54 77.6066 706.243 77.9733 706.03C78.3399 705.81 78.7766 705.7 79.2833 705.7Z" fill="#969696"/>
<path d="M74.61 760.06C74.1033 760.06 73.6233 759.98 73.17 759.82C72.7233 759.653 72.3633 759.433 72.09 759.16L72.44 758.59C72.6667 758.823 72.97 759.017 73.35 759.17C73.7367 759.323 74.1567 759.4 74.61 759.4C75.19 759.4 75.6333 759.273 75.94 759.02C76.2533 758.767 76.41 758.427 76.41 758C76.41 757.573 76.2567 757.233 75.95 756.98C75.65 756.727 75.1733 756.6 74.52 756.6H74.02V756.07L76.18 753.36L76.28 753.64H72.38V753H76.88V753.51L74.72 756.22L74.37 755.99H74.64C75.48 755.99 76.1067 756.177 76.52 756.55C76.94 756.923 77.15 757.403 77.15 757.99C77.15 758.383 77.0567 758.737 76.87 759.05C76.6833 759.363 76.4 759.61 76.02 759.79C75.6467 759.97 75.1767 760.06 74.61 760.06ZM79.6459 760L77.6659 754.75H78.3459L80.1459 759.62H79.8359L81.6859 754.75H82.2959L84.1259 759.62H83.8159L85.6459 754.75H86.2959L84.3059 760H83.6359L81.8759 755.42H82.0859L80.3159 760H79.6459Z" fill="#969696"/>
<path d="M73.74 809V802.3L74.06 802.64H72.09V802H74.46V809H73.74ZM76.6433 810.99C76.3966 810.99 76.1599 810.95 75.9333 810.87C75.7133 810.79 75.5233 810.67 75.3633 810.51L75.6933 809.98C75.8266 810.107 75.9699 810.203 76.1233 810.27C76.2833 810.343 76.4599 810.38 76.6533 810.38C76.8866 810.38 77.0866 810.313 77.2533 810.18C77.4266 810.053 77.5899 809.827 77.7433 809.5L78.0833 808.73L78.1633 808.62L80.3233 803.75H81.0233L78.3933 809.63C78.2466 809.97 78.0833 810.24 77.9033 810.44C77.7299 810.64 77.5399 810.78 77.3333 810.86C77.1266 810.947 76.8966 810.99 76.6433 810.99ZM78.0433 809.15L75.6233 803.75H76.3633L78.5033 808.57L78.0433 809.15Z" fill="#969696"/>
<rect x="113.5" y="445.5" width="203" height="40" rx="7.03846" stroke="#E6E6E6"/>
<path d="M169.925 472L174.65 461.5H176.57L181.31 472H179.27L175.205 462.535H175.985L171.935 472H169.925ZM172.1 469.57L172.625 468.04H178.295L178.82 469.57H172.1ZM182.645 472V461.5H187.235C188.375 461.5 189.375 461.72 190.235 462.16C191.095 462.6 191.765 463.21 192.245 463.99C192.725 464.77 192.965 465.69 192.965 466.75C192.965 467.8 192.725 468.72 192.245 469.51C191.765 470.29 191.095 470.9 190.235 471.34C189.375 471.78 188.375 472 187.235 472H182.645ZM184.595 470.35H187.145C187.935 470.35 188.615 470.2 189.185 469.9C189.765 469.6 190.21 469.18 190.52 468.64C190.84 468.1 191 467.47 191 466.75C191 466.02 190.84 465.39 190.52 464.86C190.21 464.32 189.765 463.9 189.185 463.6C188.615 463.3 187.935 463.15 187.145 463.15H184.595V470.35ZM195.038 472V461.5H199.628C200.768 461.5 201.768 461.72 202.628 462.16C203.488 462.6 204.158 463.21 204.638 463.99C205.118 464.77 205.358 465.69 205.358 466.75C205.358 467.8 205.118 468.72 204.638 469.51C204.158 470.29 203.488 470.9 202.628 471.34C201.768 471.78 200.768 472 199.628 472H195.038ZM196.988 470.35H199.538C200.328 470.35 201.008 470.2 201.578 469.9C202.158 469.6 202.603 469.18 202.913 468.64C203.233 468.1 203.393 467.47 203.393 466.75C203.393 466.02 203.233 465.39 202.913 464.86C202.603 464.32 202.158 463.9 201.578 463.6C201.008 463.3 200.328 463.15 199.538 463.15H196.988V470.35ZM211.576 472V461.5H215.896C216.826 461.5 217.621 461.65 218.281 461.95C218.951 462.25 219.466 462.68 219.826 463.24C220.186 463.8 220.366 464.465 220.366 465.235C220.366 466.005 220.186 466.67 219.826 467.23C219.466 467.79 218.951 468.22 218.281 468.52C217.621 468.82 216.826 468.97 215.896 468.97H212.656L213.526 468.055V472H211.576ZM213.526 468.265L212.656 467.32H215.806C216.666 467.32 217.311 467.14 217.741 466.78C218.181 466.41 218.401 465.895 218.401 465.235C218.401 464.565 218.181 464.05 217.741 463.69C217.311 463.33 216.666 463.15 215.806 463.15H212.656L213.526 462.19V468.265ZM227.38 472.15C226.56 472.15 225.805 472.015 225.115 471.745C224.425 471.475 223.825 471.1 223.315 470.62C222.805 470.13 222.41 469.56 222.13 468.91C221.85 468.25 221.71 467.53 221.71 466.75C221.71 465.97 221.85 465.255 222.13 464.605C222.41 463.945 222.805 463.375 223.315 462.895C223.825 462.405 224.425 462.025 225.115 461.755C225.805 461.485 226.555 461.35 227.365 461.35C228.185 461.35 228.935 461.485 229.615 461.755C230.305 462.025 230.905 462.405 231.415 462.895C231.925 463.375 232.32 463.945 232.6 464.605C232.88 465.255 233.02 465.97 233.02 466.75C233.02 467.53 232.88 468.25 232.6 468.91C232.32 469.57 231.925 470.14 231.415 470.62C230.905 471.1 230.305 471.475 229.615 471.745C228.935 472.015 228.19 472.15 227.38 472.15ZM227.365 470.44C227.895 470.44 228.385 470.35 228.835 470.17C229.285 469.99 229.675 469.735 230.005 469.405C230.335 469.065 230.59 468.675 230.77 468.235C230.96 467.785 231.055 467.29 231.055 466.75C231.055 466.21 230.96 465.72 230.77 465.28C230.59 464.83 230.335 464.44 230.005 464.11C229.675 463.77 229.285 463.51 228.835 463.33C228.385 463.15 227.895 463.06 227.365 463.06C226.835 463.06 226.345 463.15 225.895 463.33C225.455 463.51 225.065 463.77 224.725 464.11C224.395 464.44 224.135 464.83 223.945 465.28C223.765 465.72 223.675 466.21 223.675 466.75C223.675 467.28 223.765 467.77 223.945 468.22C224.135 468.67 224.395 469.065 224.725 469.405C225.055 469.735 225.445 469.99 225.895 470.17C226.345 470.35 226.835 470.44 227.365 470.44ZM235.087 472V461.5H237.037V472H235.087ZM239.877 472V461.5H241.482L248.067 469.585H247.272V461.5H249.207V472H247.602L241.017 463.915H241.812V472H239.877ZM254.15 472V463.15H250.67V461.5H259.58V463.15H256.1V472H254.15Z" fill="black"/>
<line x1="72" y1="547.5" x2="357" y2="547.5" stroke="#D9D9D9"/>
<g filter="url(#filter1_b_92_1128)">
<path d="M0 864C0 852.954 8.95431 844 20 844H408C419.046 844 428 852.954 428 864V926H0V864Z" fill="#FBFCFC" fill-opacity="0.86"/>
<path d="M50.0484 862.751C49.5798 862.283 48.82 862.283 48.3513 862.751L39.9513 871.151C39.4827 871.62 39.4827 872.38 39.9513 872.849C40.42 873.317 41.1798 873.317 41.6484 872.849L41.9999 872.497V880.4C41.9999 881.063 42.5371 881.6 43.1999 881.6H45.5999C46.2626 881.6 46.7999 881.063 46.7999 880.4V878C46.7999 877.337 47.3371 876.8 47.9999 876.8H50.3999C51.0626 876.8 51.5999 877.337 51.5999 878V880.4C51.5999 881.063 52.1371 881.6 52.7999 881.6H55.1999C55.8626 881.6 56.3999 881.063 56.3999 880.4V872.497L56.7513 872.849C57.22 873.317 57.9798 873.317 58.4484 872.849C58.917 872.38 58.917 871.62 58.4484 871.151L50.0484 862.751Z" fill="#656070"/>
<path fill-rule="evenodd" clip-rule="evenodd" d="M125.66 864.86C128.941 861.58 134.259 861.58 137.54 864.86C140.82 868.141 140.82 873.459 137.54 876.74L131.6 882.679L125.66 876.74C122.38 873.459 122.38 868.141 125.66 864.86ZM131.6 873.2C132.925 873.2 134 872.125 134 870.8C134 869.475 132.925 868.4 131.6 868.4C130.274 868.4 129.2 869.475 129.2 870.8C129.2 872.125 130.274 873.2 131.6 873.2Z" fill="#656070"/>
<path fill-rule="evenodd" clip-rule="evenodd" d="M388.4 872C388.4 877.302 384.102 881.6 378.8 881.6C373.498 881.6 369.2 877.302 369.2 872C369.2 866.698 373.498 862.4 378.8 862.4C384.102 862.4 388.4 866.698 388.4 872ZM381.2 868.4C381.2 869.725 380.125 870.8 378.8 870.8C377.474 870.8 376.4 869.725 376.4 868.4C376.4 867.075 377.474 866 378.8 866C380.125 866 381.2 867.075 381.2 868.4ZM378.8 873.2C376.379 873.2 374.293 874.634 373.344 876.699C374.665 878.23 376.619 879.2 378.8 879.2C380.981 879.2 382.935 878.23 384.255 876.699C383.307 874.634 381.221 873.2 378.8 873.2Z" fill="#0B0712"/>
<rect x="147" y="913" width="134" height="5" rx="2.5" fill="#0B0712"/>
</g>
<path d="M291.7 862C287.46 862 284 865.46 284 869.7C284 873.94 287.46 877.4 291.7 877.4C293.623 877.4 295.38 876.683 296.732 875.509L297.2 875.978V877.4L303.8 884L306 881.8L299.4 875.2H297.978L297.509 874.732C298.683 873.38 299.4 871.623 299.4 869.7C299.4 865.46 295.94 862 291.7 862ZM291.7 864.2C294.751 864.2 297.2 866.649 297.2 869.7C297.2 872.751 294.751 875.2 291.7 875.2C288.649 875.2 286.2 872.751 286.2 869.7C286.2 866.649 288.649 864.2 291.7 864.2Z" fill="#656070"/>
<path d="M213.5 877.18C215.532 877.18 217.18 875.532 217.18 873.5C217.18 871.468 215.532 869.82 213.5 869.82C211.468 869.82 209.82 871.468 209.82 873.5C209.82 875.532 211.468 877.18 213.5 877.18Z" fill="#656070"/>
<path d="M210.05 862L207.945 864.3H204.3C203.035 864.3 202 865.335 202 866.6V880.4C202 881.665 203.035 882.7 204.3 882.7H222.7C223.965 882.7 225 881.665 225 880.4V866.6C225 865.335 223.965 864.3 222.7 864.3H219.054L216.95 862H210.05ZM213.5 879.25C210.326 879.25 207.75 876.674 207.75 873.5C207.75 870.326 210.326 867.75 213.5 867.75C216.674 867.75 219.25 870.326 219.25 873.5C219.25 876.674 216.674 879.25 213.5 879.25Z" fill="#656070"/>
</g>
<defs>
<filter id="filter0_d_92_1128" x="-40" y="-24" width="508" height="191" filterUnits="userSpaceOnUse" color-interpolation-filters="sRGB">
<feFlood flood-opacity="0" result="BackgroundImageFix"/>
<feColorMatrix in="SourceAlpha" type="matrix" values="0 0 0 0 0 0 0 0 0 0 0 0 0 0 0 0 0 0 127 0" result="hardAlpha"/>
<feOffset dy="16"/>
<feGaussianBlur stdDeviation="20"/>
<feComposite in2="hardAlpha" operator="out"/>
<feColorMatrix type="matrix" values="0 0 0 0 0.439216 0 0 0 0 0.564706 0 0 0 0 0.690196 0 0 0 0.1 0"/>
<feBlend mode="normal" in2="BackgroundImageFix" result="effect1_dropShadow_92_1128"/>
<feBlend mode="normal" in="SourceGraphic" in2="effect1_dropShadow_92_1128" result="shape"/>
</filter>
<filter id="filter1_b_92_1128" x="-16" y="828" width="460" height="114" filterUnits="userSpaceOnUse" color-interpolation-filters="sRGB">
<feFlood flood-opacity="0" result="BackgroundImageFix"/>
<feGaussianBlur in="BackgroundImage" stdDeviation="8"/>
<feComposite in2="SourceAlpha" operator="in" result="effect1_backgroundBlur_92_1128"/>
<feBlend mode="normal" in="SourceGraphic" in2="effect1_backgroundBlur_92_1128" result="shape"/>
</filter>
<clipPath id="clip0_92_1128">
<rect width="428" height="926" fill="white"/>
</clipPath>
</defs>
</svg>
