<svg width="1363" height="167" viewBox="0 0 1363 167" fill="none" xmlns="http://www.w3.org/2000/svg">
<path d="M1348 0H15C6.71573 0 0 6.71573 0 15V152C0 160.284 6.71573 167 15 167H1348C1356.28 167 1363 160.284 1363 152V15C1363 6.71573 1356.28 0 1348 0Z" fill="#F0F0F0"/>
<path d="M0 15C0 6.71573 6.71573 0 15 0H37V167H15C6.71573 167 0 160.284 0 152V15Z" fill="#FF0000"/>
<path d="M100.906 54.9219L93.3945 52.2383V49.0859L103.602 53.375V55.6367L100.906 54.9219ZM93.3945 57.1719L100.918 54.4297L103.602 53.7852V56.0352L93.3945 60.3242V57.1719Z" fill="#888888"/>
<path d="M109.93 83.0078V115H102.217V83.0078H109.93ZM119.554 83.0078V88.9624H92.813V83.0078H119.554ZM132.012 115.439C130.079 115.439 128.35 115.139 126.827 114.539C125.303 113.923 124.014 113.081 122.959 112.012C121.919 110.942 121.121 109.712 120.564 108.32C120.022 106.929 119.751 105.457 119.751 103.904V103.069C119.751 101.326 119.993 99.7144 120.477 98.2349C120.96 96.7407 121.678 95.437 122.63 94.3237C123.582 93.2104 124.776 92.3462 126.211 91.731C127.647 91.1011 129.317 90.7861 131.221 90.7861C132.906 90.7861 134.415 91.0571 135.748 91.5991C137.081 92.1411 138.208 92.9175 139.131 93.9282C140.069 94.939 140.779 96.1621 141.263 97.5977C141.761 99.0332 142.01 100.645 142.01 102.432V105.442H122.586V100.806H134.781V100.234C134.795 99.4434 134.656 98.7695 134.363 98.2129C134.085 97.6562 133.675 97.2314 133.133 96.9385C132.591 96.6455 131.932 96.499 131.155 96.499C130.35 96.499 129.683 96.6748 129.156 97.0264C128.643 97.3779 128.24 97.8613 127.947 98.4766C127.669 99.0771 127.471 99.7729 127.354 100.564C127.237 101.355 127.178 102.19 127.178 103.069V103.904C127.178 104.783 127.295 105.581 127.53 106.299C127.779 107.017 128.13 107.632 128.584 108.145C129.053 108.643 129.61 109.031 130.254 109.309C130.914 109.587 131.661 109.727 132.496 109.727C133.506 109.727 134.502 109.536 135.484 109.155C136.465 108.774 137.308 108.145 138.011 107.266L141.373 111.265C140.889 111.953 140.201 112.62 139.307 113.264C138.428 113.909 137.374 114.436 136.143 114.846C134.913 115.242 133.536 115.439 132.012 115.439ZM155.062 109.727C155.75 109.727 156.336 109.602 156.819 109.353C157.317 109.089 157.691 108.723 157.94 108.254C158.204 107.771 158.328 107.192 158.313 106.519H165.279C165.293 108.306 164.854 109.873 163.96 111.221C163.082 112.554 161.88 113.594 160.357 114.341C158.848 115.073 157.142 115.439 155.237 115.439C153.377 115.439 151.751 115.139 150.359 114.539C148.968 113.923 147.803 113.074 146.866 111.99C145.943 110.891 145.247 109.609 144.778 108.145C144.324 106.68 144.097 105.09 144.097 103.376V102.871C144.097 101.157 144.324 99.5679 144.778 98.103C145.247 96.6235 145.943 95.3418 146.866 94.2578C147.803 93.1592 148.96 92.3096 150.337 91.709C151.729 91.0938 153.348 90.7861 155.193 90.7861C157.171 90.7861 158.914 91.1597 160.423 91.9067C161.946 92.6538 163.14 93.7378 164.004 95.1587C164.869 96.5796 165.293 98.3008 165.279 100.322H158.313C158.328 99.6045 158.218 98.96 157.984 98.3887C157.75 97.8174 157.383 97.3633 156.885 97.0264C156.402 96.6748 155.779 96.499 155.018 96.499C154.256 96.499 153.641 96.6675 153.172 97.0044C152.703 97.3413 152.344 97.8101 152.095 98.4106C151.861 98.9966 151.7 99.6704 151.612 100.432C151.539 101.194 151.502 102.007 151.502 102.871V103.376C151.502 104.255 151.539 105.083 151.612 105.859C151.7 106.621 151.868 107.295 152.117 107.881C152.366 108.452 152.725 108.906 153.194 109.243C153.663 109.565 154.285 109.727 155.062 109.727ZM175.694 81.25V115H168.289V81.25H175.694ZM174.815 102.3L173.079 102.344C173.079 100.674 173.284 99.1357 173.694 97.7295C174.104 96.3232 174.69 95.1001 175.452 94.0601C176.214 93.02 177.129 92.2144 178.199 91.6431C179.268 91.0718 180.455 90.7861 181.758 90.7861C182.93 90.7861 184 90.9546 184.966 91.2915C185.948 91.6284 186.79 92.1704 187.493 92.9175C188.211 93.6646 188.76 94.6387 189.141 95.8398C189.537 97.041 189.734 98.5059 189.734 100.234V115H182.286V100.19C182.286 99.2236 182.146 98.4766 181.868 97.9492C181.604 97.4072 181.224 97.0337 180.726 96.8286C180.228 96.6089 179.62 96.499 178.902 96.499C178.038 96.499 177.334 96.6455 176.792 96.9385C176.25 97.2314 175.833 97.6416 175.54 98.1689C175.262 98.6816 175.071 99.2896 174.969 99.9927C174.866 100.696 174.815 101.465 174.815 102.3ZM221.88 106.497C221.88 105.999 221.807 105.552 221.661 105.156C221.514 104.746 221.243 104.365 220.848 104.014C220.452 103.662 219.881 103.311 219.134 102.959C218.401 102.593 217.435 102.212 216.233 101.816C214.827 101.348 213.472 100.82 212.168 100.234C210.865 99.6338 209.7 98.938 208.675 98.147C207.649 97.3413 206.836 96.4038 206.236 95.3345C205.635 94.2505 205.335 92.9907 205.335 91.5552C205.335 90.1782 205.643 88.9404 206.258 87.8418C206.873 86.7285 207.73 85.7837 208.829 85.0073C209.942 84.2163 211.246 83.6157 212.74 83.2056C214.234 82.7808 215.867 82.5684 217.64 82.5684C219.983 82.5684 222.049 82.9785 223.836 83.7988C225.638 84.6045 227.044 85.7544 228.055 87.2485C229.08 88.728 229.593 90.4785 229.593 92.5H221.924C221.924 91.6943 221.756 90.9839 221.419 90.3687C221.097 89.7534 220.606 89.27 219.947 88.9185C219.288 88.5669 218.46 88.3911 217.464 88.3911C216.497 88.3911 215.684 88.5376 215.025 88.8306C214.366 89.1235 213.868 89.519 213.531 90.0171C213.194 90.5005 213.025 91.0352 213.025 91.6211C213.025 92.1045 213.157 92.5439 213.421 92.9395C213.699 93.3203 214.087 93.6792 214.585 94.0161C215.098 94.353 215.713 94.6753 216.431 94.9829C217.164 95.2905 217.984 95.5908 218.892 95.8838C220.591 96.4258 222.1 97.0337 223.418 97.7075C224.751 98.3667 225.872 99.1211 226.78 99.9707C227.703 100.806 228.399 101.758 228.868 102.827C229.351 103.896 229.593 105.105 229.593 106.453C229.593 107.888 229.314 109.163 228.758 110.276C228.201 111.389 227.403 112.334 226.363 113.11C225.323 113.872 224.078 114.451 222.627 114.846C221.177 115.242 219.559 115.439 217.771 115.439C216.131 115.439 214.512 115.234 212.916 114.824C211.333 114.399 209.898 113.755 208.609 112.891C207.32 112.012 206.287 110.891 205.511 109.529C204.749 108.152 204.368 106.519 204.368 104.629H212.103C212.103 105.566 212.227 106.357 212.476 107.002C212.725 107.646 213.091 108.167 213.575 108.562C214.058 108.943 214.651 109.221 215.354 109.397C216.058 109.558 216.863 109.639 217.771 109.639C218.753 109.639 219.544 109.5 220.145 109.221C220.745 108.928 221.185 108.547 221.463 108.079C221.741 107.595 221.88 107.068 221.88 106.497ZM245.743 91.2256V96.3672H231.417V91.2256H245.743ZM234.427 85.3149H241.832V107.244C241.832 107.874 241.905 108.364 242.051 108.716C242.198 109.053 242.447 109.294 242.798 109.441C243.165 109.573 243.648 109.639 244.249 109.639C244.673 109.639 245.025 109.631 245.303 109.617C245.582 109.587 245.845 109.551 246.094 109.507V114.802C245.464 115.007 244.805 115.161 244.117 115.264C243.428 115.381 242.696 115.439 241.919 115.439C240.337 115.439 238.982 115.19 237.854 114.692C236.741 114.194 235.892 113.411 235.306 112.341C234.72 111.272 234.427 109.88 234.427 108.167V85.3149ZM261.036 109.023V99.2236C261.036 98.5498 260.94 97.9712 260.75 97.4878C260.56 97.0044 260.259 96.6309 259.849 96.3672C259.439 96.0889 258.89 95.9497 258.201 95.9497C257.645 95.9497 257.168 96.0449 256.773 96.2354C256.377 96.4258 256.077 96.7114 255.872 97.0923C255.667 97.4731 255.564 97.9565 255.564 98.5425H248.16C248.16 97.4438 248.401 96.4258 248.885 95.4883C249.383 94.5361 250.086 93.7085 250.994 93.0054C251.917 92.3022 253.016 91.7603 254.29 91.3794C255.579 90.9839 257.015 90.7861 258.597 90.7861C260.486 90.7861 262.171 91.1011 263.65 91.731C265.145 92.3608 266.324 93.3057 267.188 94.5654C268.052 95.8105 268.484 97.3779 268.484 99.2676V109.001C268.484 110.554 268.572 111.733 268.748 112.539C268.924 113.33 269.173 114.026 269.495 114.626V115H262.068C261.717 114.268 261.453 113.374 261.277 112.319C261.116 111.25 261.036 110.151 261.036 109.023ZM261.937 100.476L261.98 104.431H258.707C258.018 104.431 257.432 104.526 256.949 104.717C256.48 104.907 256.099 105.171 255.806 105.508C255.528 105.83 255.323 106.196 255.191 106.606C255.074 107.017 255.015 107.449 255.015 107.903C255.015 108.342 255.118 108.738 255.323 109.089C255.542 109.426 255.835 109.69 256.202 109.88C256.568 110.071 256.978 110.166 257.432 110.166C258.252 110.166 258.948 110.012 259.52 109.705C260.105 109.382 260.552 108.994 260.86 108.54C261.167 108.086 261.321 107.661 261.321 107.266L262.947 110.298C262.654 110.884 262.317 111.477 261.937 112.078C261.57 112.678 261.109 113.235 260.552 113.748C260.01 114.246 259.344 114.656 258.553 114.978C257.762 115.286 256.802 115.439 255.674 115.439C254.209 115.439 252.862 115.139 251.631 114.539C250.416 113.938 249.441 113.103 248.709 112.034C247.977 110.95 247.61 109.705 247.61 108.298C247.61 107.068 247.83 105.969 248.27 105.002C248.724 104.036 249.405 103.215 250.313 102.542C251.221 101.868 252.378 101.355 253.785 101.003C255.191 100.652 256.846 100.476 258.75 100.476H261.937ZM282.635 109.727C283.323 109.727 283.909 109.602 284.393 109.353C284.891 109.089 285.264 108.723 285.513 108.254C285.777 107.771 285.901 107.192 285.887 106.519H292.852C292.867 108.306 292.427 109.873 291.534 111.221C290.655 112.554 289.454 113.594 287.93 114.341C286.421 115.073 284.715 115.439 282.811 115.439C280.95 115.439 279.324 115.139 277.933 114.539C276.541 113.923 275.376 113.074 274.439 111.99C273.516 110.891 272.82 109.609 272.352 108.145C271.897 106.68 271.67 105.09 271.67 103.376V102.871C271.67 101.157 271.897 99.5679 272.352 98.103C272.82 96.6235 273.516 95.3418 274.439 94.2578C275.376 93.1592 276.534 92.3096 277.911 91.709C279.302 91.0938 280.921 90.7861 282.767 90.7861C284.744 90.7861 286.487 91.1597 287.996 91.9067C289.52 92.6538 290.713 93.7378 291.578 95.1587C292.442 96.5796 292.867 98.3008 292.852 100.322H285.887C285.901 99.6045 285.792 98.96 285.557 98.3887C285.323 97.8174 284.957 97.3633 284.458 97.0264C283.975 96.6748 283.353 96.499 282.591 96.499C281.829 96.499 281.214 96.6675 280.745 97.0044C280.276 97.3413 279.917 97.8101 279.668 98.4106C279.434 98.9966 279.273 99.6704 279.185 100.432C279.112 101.194 279.075 102.007 279.075 102.871V103.376C279.075 104.255 279.112 105.083 279.185 105.859C279.273 106.621 279.441 107.295 279.69 107.881C279.939 108.452 280.298 108.906 280.767 109.243C281.236 109.565 281.858 109.727 282.635 109.727ZM303.487 81.228V115H296.082V81.228H303.487ZM318.692 91.2256L308.365 103.333L302.959 108.738L299.729 104.036L304.234 98.1689L309.815 91.2256H318.692ZM310.76 115L304.41 104.167L309.881 100.278L319.241 115H310.76Z" fill="#424241"/>
<path d="M1363 15C1363 6.71573 1356.28 0 1348 0H1134V167H1348C1356.28 167 1363 160.284 1363 152V15Z" fill="#FF0000"/>
<path fill-rule="evenodd" clip-rule="evenodd" d="M1218.5 55C1218.37 55 1218.24 55.0527 1218.15 55.1464C1218.05 55.2402 1218 55.3674 1218 55.5V111.5C1218 111.633 1218.05 111.76 1218.15 111.854C1218.24 111.947 1218.37 112 1218.5 112H1278C1278.13 112 1278.26 111.947 1278.35 111.854C1278.45 111.76 1278.5 111.633 1278.5 111.5V66C1278.5 65.8674 1278.45 65.7402 1278.35 65.6464C1278.26 65.5527 1278.13 65.5 1278 65.5H1248.25C1247.36 65.5 1246.52 65.1045 1245.95 64.4206L1238.09 55H1218.5ZM1213.9 50.9038C1215.12 49.6848 1216.78 49 1218.5 49H1239.5C1240.39 49 1241.23 49.3955 1241.8 50.0794L1249.66 59.5H1278C1279.72 59.5 1281.38 60.1848 1282.6 61.4038C1283.82 62.6228 1284.5 64.2761 1284.5 66V111.5C1284.5 113.224 1283.82 114.877 1282.6 116.096C1281.38 117.315 1279.72 118 1278 118H1218.5C1216.78 118 1215.12 117.315 1213.9 116.096C1212.68 114.877 1212 113.224 1212 111.5V55.5C1212 53.7761 1212.68 52.1228 1213.9 50.9038Z" fill="white"/>
<path fill-rule="evenodd" clip-rule="evenodd" d="M1243.72 77.5251C1245.09 78.892 1245.09 81.108 1243.72 82.4749L1237.45 88.75L1243.72 95.0251C1245.09 96.392 1245.09 98.608 1243.72 99.9749C1242.36 101.342 1240.14 101.342 1238.78 99.9749L1230.03 91.2249C1228.66 89.858 1228.66 87.642 1230.03 86.2751L1238.78 77.5251C1240.14 76.1583 1242.36 76.1583 1243.72 77.5251Z" fill="white"/>
<path fill-rule="evenodd" clip-rule="evenodd" d="M1252.03 99.9749C1250.66 98.608 1250.66 96.392 1252.03 95.0251L1258.3 88.75L1252.03 82.4749C1250.66 81.108 1250.66 78.892 1252.03 77.5251C1253.39 76.1583 1255.61 76.1583 1256.97 77.5251L1265.72 86.2751C1267.09 87.642 1267.09 89.858 1265.72 91.2249L1256.97 99.9749C1255.61 101.342 1253.39 101.342 1252.03 99.9749Z" fill="white"/>
<path d="M115.58 64V45.8182H127.619V48.9876H119.424V53.32H126.82V56.4893H119.424V64H115.58ZM135.294 64.2663C133.914 64.2663 132.722 63.9734 131.716 63.3874C130.715 62.7956 129.943 61.9729 129.399 60.9194C128.854 59.86 128.582 58.6319 128.582 57.2351C128.582 55.8265 128.854 54.5954 129.399 53.5419C129.943 52.4825 130.715 51.6598 131.716 51.0739C132.722 50.482 133.914 50.1861 135.294 50.1861C136.673 50.1861 137.862 50.482 138.862 51.0739C139.869 51.6598 140.644 52.4825 141.188 53.5419C141.733 54.5954 142.005 55.8265 142.005 57.2351C142.005 58.6319 141.733 59.86 141.188 60.9194C140.644 61.9729 139.869 62.7956 138.862 63.3874C137.862 63.9734 136.673 64.2663 135.294 64.2663ZM135.311 61.3366C135.939 61.3366 136.462 61.1591 136.883 60.804C137.303 60.4429 137.619 59.9517 137.833 59.3303C138.052 58.7088 138.161 58.0015 138.161 57.2085C138.161 56.4154 138.052 55.7081 137.833 55.0866C137.619 54.4652 137.303 53.974 136.883 53.6129C136.462 53.2519 135.939 53.0714 135.311 53.0714C134.678 53.0714 134.145 53.2519 133.713 53.6129C133.287 53.974 132.965 54.4652 132.746 55.0866C132.532 55.7081 132.426 56.4154 132.426 57.2085C132.426 58.0015 132.532 58.7088 132.746 59.3303C132.965 59.9517 133.287 60.4429 133.713 60.804C134.145 61.1591 134.678 61.3366 135.311 61.3366ZM144.464 64V50.3636H148.131V52.7429H148.273C148.521 51.8965 148.939 51.2573 149.525 50.8253C150.111 50.3873 150.785 50.1683 151.549 50.1683C151.738 50.1683 151.942 50.1802 152.161 50.2038C152.38 50.2275 152.573 50.2601 152.738 50.3015V53.6573C152.561 53.604 152.315 53.5567 152.002 53.5153C151.688 53.4738 151.401 53.4531 151.14 53.4531C150.584 53.4531 150.087 53.5745 149.649 53.8171C149.217 54.0539 148.874 54.3853 148.619 54.8114C148.371 55.2376 148.246 55.7288 148.246 56.2852V64H144.464ZM166.04 54.2521L162.577 54.4652C162.518 54.1693 162.391 53.9029 162.196 53.6662C162 53.4235 161.743 53.2312 161.423 53.0891C161.11 52.9412 160.734 52.8672 160.296 52.8672C159.71 52.8672 159.216 52.9915 158.813 53.2401C158.411 53.4827 158.209 53.8082 158.209 54.2166C158.209 54.5421 158.34 54.8174 158.6 55.0423C158.86 55.2672 159.307 55.4477 159.941 55.5838L162.409 56.081C163.734 56.3532 164.723 56.7912 165.374 57.3949C166.025 57.9986 166.35 58.7917 166.35 59.7741C166.35 60.6679 166.087 61.4521 165.56 62.1268C165.039 62.8015 164.323 63.3282 163.412 63.707C162.506 64.0799 161.462 64.2663 160.278 64.2663C158.473 64.2663 157.035 63.8905 155.963 63.1388C154.898 62.3813 154.274 61.3514 154.09 60.0494L157.81 59.854C157.922 60.4045 158.195 60.8247 158.627 61.1147C159.059 61.3988 159.612 61.5408 160.287 61.5408C160.95 61.5408 161.482 61.4136 161.885 61.1591C162.293 60.8987 162.5 60.5643 162.506 60.1559C162.5 59.8126 162.355 59.5315 162.071 59.3125C161.787 59.0876 161.349 58.916 160.757 58.7976L158.396 58.3271C157.064 58.0607 156.073 57.5991 155.422 56.9421C154.777 56.2852 154.454 55.4477 154.454 54.4297C154.454 53.5537 154.691 52.7991 155.164 52.1658C155.644 51.5326 156.315 51.0443 157.18 50.701C158.05 50.3577 159.068 50.1861 160.234 50.1861C161.956 50.1861 163.311 50.5501 164.3 51.2781C165.294 52.006 165.874 52.9974 166.04 54.2521ZM172.62 64.2575C171.75 64.2575 170.975 64.1065 170.294 63.8047C169.614 63.4969 169.075 63.0442 168.679 62.4464C168.288 61.8427 168.093 61.091 168.093 60.1914C168.093 59.4338 168.232 58.7976 168.51 58.2827C168.788 57.7678 169.167 57.3535 169.646 57.0398C170.126 56.7261 170.67 56.4893 171.28 56.3295C171.895 56.1697 172.54 56.0573 173.215 55.9922C174.008 55.9093 174.647 55.8324 175.133 55.7614C175.618 55.6844 175.97 55.572 176.189 55.424C176.408 55.276 176.518 55.0571 176.518 54.767V54.7138C176.518 54.1515 176.34 53.7165 175.985 53.4087C175.636 53.101 175.139 52.9471 174.494 52.9471C173.813 52.9471 173.271 53.098 172.869 53.3999C172.467 53.6958 172.2 54.0687 172.07 54.5185L168.572 54.2344C168.75 53.4058 169.099 52.6896 169.62 52.0859C170.141 51.4763 170.812 51.0088 171.635 50.6832C172.464 50.3518 173.422 50.1861 174.511 50.1861C175.269 50.1861 175.994 50.2749 176.686 50.4524C177.385 50.63 178.003 50.9052 178.542 51.2781C179.086 51.6509 179.516 52.1303 179.829 52.7163C180.143 53.2963 180.3 53.9917 180.3 54.8026V64H176.713V62.109H176.607C176.388 62.5352 176.095 62.911 175.728 63.2365C175.361 63.5561 174.92 63.8076 174.405 63.9911C173.89 64.1687 173.295 64.2575 172.62 64.2575ZM173.703 61.6474C174.26 61.6474 174.751 61.5379 175.177 61.3189C175.603 61.094 175.938 60.7921 176.18 60.4134C176.423 60.0346 176.544 59.6055 176.544 59.1261V57.679C176.426 57.7559 176.263 57.8269 176.056 57.892C175.855 57.9512 175.627 58.0075 175.373 58.0607C175.118 58.1081 174.864 58.1525 174.609 58.1939C174.355 58.2294 174.124 58.262 173.917 58.2915C173.473 58.3567 173.085 58.4602 172.754 58.6023C172.422 58.7443 172.165 58.9367 171.981 59.1793C171.798 59.4161 171.706 59.712 171.706 60.0671C171.706 60.582 171.892 60.9756 172.265 61.2479C172.644 61.5142 173.123 61.6474 173.703 61.6474ZM186.661 60.076L186.67 55.5394H187.22L191.588 50.3636H195.929L190.061 57.2173H189.164L186.661 60.076ZM183.234 64V45.8182H187.016V64H183.234ZM191.757 64L187.744 58.0607L190.265 55.3885L196.187 64H191.757ZM203.438 64.2663C202.035 64.2663 200.828 63.9822 199.815 63.4141C198.809 62.84 198.034 62.0291 197.489 60.9815C196.945 59.928 196.673 58.6822 196.673 57.244C196.673 55.8413 196.945 54.6102 197.489 53.5508C198.034 52.4914 198.8 51.6657 199.789 51.0739C200.783 50.482 201.949 50.1861 203.287 50.1861C204.186 50.1861 205.024 50.3311 205.799 50.6211C206.58 50.9052 207.261 51.3343 207.841 51.9084C208.427 52.4825 208.883 53.2045 209.208 54.0746C209.534 54.9387 209.696 55.9508 209.696 57.1108V58.1495H198.182V55.8058H206.136C206.136 55.2612 206.018 54.7789 205.781 54.3587C205.545 53.9384 205.216 53.61 204.796 53.3732C204.382 53.1306 203.899 53.0092 203.349 53.0092C202.775 53.0092 202.266 53.1424 201.822 53.4087C201.384 53.6692 201.041 54.0213 200.792 54.4652C200.543 54.9032 200.416 55.3915 200.41 55.93V58.1584C200.41 58.8331 200.535 59.4161 200.783 59.9073C201.038 60.3986 201.396 60.7773 201.857 61.0437C202.319 61.31 202.866 61.4432 203.5 61.4432C203.92 61.4432 204.305 61.384 204.654 61.2656C205.003 61.1473 205.302 60.9697 205.551 60.733C205.799 60.4962 205.988 60.2062 206.119 59.8629L209.617 60.0938C209.439 60.9342 209.075 61.6681 208.525 62.2955C207.98 62.9169 207.276 63.4022 206.412 63.7514C205.553 64.0947 204.562 64.2663 203.438 64.2663ZM215.946 56.1165V64H212.165V50.3636H215.769V52.7695H215.929C216.231 51.9764 216.737 51.3491 217.447 50.8874C218.157 50.4199 219.018 50.1861 220.03 50.1861C220.977 50.1861 221.803 50.3932 222.507 50.8075C223.212 51.2218 223.759 51.8137 224.15 52.5831C224.54 53.3466 224.736 54.258 224.736 55.3175V64H220.954V55.9922C220.959 55.1577 220.746 54.5066 220.314 54.0391C219.882 53.5656 219.287 53.3288 218.53 53.3288C218.021 53.3288 217.571 53.4383 217.18 53.6573C216.796 53.8763 216.494 54.1959 216.275 54.6161C216.062 55.0304 215.952 55.5305 215.946 56.1165Z" fill="#959595"/>
</svg>
