<svg width="1363" height="301" viewBox="0 0 1363 301" fill="none" xmlns="http://www.w3.org/2000/svg">
<path d="M1348 0H15C6.71573 0 0 6.71573 0 15V286C0 294.284 6.71573 301 15 301H1348C1356.28 301 1363 294.284 1363 286V15C1363 6.71573 1356.28 0 1348 0Z" fill="#F0F0F0"/>
<path d="M0 15C0 6.71573 6.71573 0 15 0H37V301H15C6.71573 301 0 294.284 0 286V15Z" fill="#FF0000"/>
<path d="M1257.67 181H105.333C97.9695 181 92 186.97 92 194.333V247.667C92 255.03 97.9695 261 105.333 261H1257.67C1265.03 261 1271 255.03 1271 247.667V194.333C1271 186.97 1265.03 181 1257.67 181Z" fill="#CCCCCC"/>
<path d="M310.333 196H111.667C109.089 196 107 198.089 107 200.667V240.667C107 243.244 109.089 245.333 111.667 245.333H310.333C312.911 245.333 315 243.244 315 240.667V200.667C315 198.089 312.911 196 310.333 196Z" fill="#888888" stroke="#888888" stroke-width="4"/>
<path d="M542.333 196H343.667C341.089 196 339 198.089 339 200.667V240.667C339 243.244 341.089 245.333 343.667 245.333H542.333C544.911 245.333 547 243.244 547 240.667V200.667C547 198.089 544.911 196 542.333 196Z" fill="#888888" stroke="#888888" stroke-width="4"/>
<path d="M774.333 196H575.667C573.089 196 571 198.089 571 200.667V240.667C571 243.244 573.089 245.333 575.667 245.333H774.333C776.911 245.333 779 243.244 779 240.667V200.667C779 198.089 776.911 196 774.333 196Z" fill="#888888" stroke="#888888" stroke-width="4"/>
<path d="M1006.67 196.333H808C805.422 196.333 803.333 198.422 803.333 201V241C803.333 243.577 805.422 245.666 808 245.666H1006.67C1009.24 245.666 1011.33 243.577 1011.33 241V201C1011.33 198.422 1009.24 196.333 1006.67 196.333Z" fill="#888888" stroke="#888888" stroke-width="4"/>
<path d="M95.4766 150V110H121.961V116.973H103.934V126.504H120.203V133.477H103.934V150H95.4766ZM138.846 150.586C135.812 150.586 133.188 149.941 130.975 148.652C128.774 147.35 127.075 145.54 125.877 143.223C124.679 140.892 124.08 138.19 124.08 135.117C124.08 132.018 124.679 129.31 125.877 126.992C127.075 124.661 128.774 122.852 130.975 121.562C133.188 120.26 135.812 119.609 138.846 119.609C141.88 119.609 144.497 120.26 146.697 121.562C148.911 122.852 150.617 124.661 151.814 126.992C153.012 129.31 153.611 132.018 153.611 135.117C153.611 138.19 153.012 140.892 151.814 143.223C150.617 145.54 148.911 147.35 146.697 148.652C144.497 149.941 141.88 150.586 138.846 150.586ZM138.885 144.141C140.265 144.141 141.417 143.75 142.342 142.969C143.266 142.174 143.963 141.094 144.432 139.727C144.913 138.359 145.154 136.803 145.154 135.059C145.154 133.314 144.913 131.758 144.432 130.391C143.963 129.023 143.266 127.943 142.342 127.148C141.417 126.354 140.265 125.957 138.885 125.957C137.492 125.957 136.32 126.354 135.369 127.148C134.432 127.943 133.722 129.023 133.24 130.391C132.771 131.758 132.537 133.314 132.537 135.059C132.537 136.803 132.771 138.359 133.24 139.727C133.722 141.094 134.432 142.174 135.369 142.969C136.32 143.75 137.492 144.141 138.885 144.141ZM159.021 150V120H167.088V125.234H167.4C167.947 123.372 168.865 121.966 170.154 121.016C171.443 120.052 172.928 119.57 174.607 119.57C175.024 119.57 175.473 119.596 175.955 119.648C176.437 119.701 176.86 119.772 177.225 119.863V127.246C176.834 127.129 176.294 127.025 175.604 126.934C174.913 126.842 174.282 126.797 173.709 126.797C172.485 126.797 171.391 127.064 170.428 127.598C169.477 128.118 168.722 128.848 168.162 129.785C167.615 130.723 167.342 131.803 167.342 133.027V150H159.021ZM206.487 128.555L198.87 129.023C198.74 128.372 198.46 127.786 198.03 127.266C197.601 126.732 197.034 126.309 196.331 125.996C195.641 125.671 194.814 125.508 193.851 125.508C192.562 125.508 191.474 125.781 190.589 126.328C189.703 126.862 189.261 127.578 189.261 128.477C189.261 129.193 189.547 129.798 190.12 130.293C190.693 130.788 191.676 131.185 193.069 131.484L198.499 132.578C201.416 133.177 203.59 134.141 205.022 135.469C206.455 136.797 207.171 138.542 207.171 140.703C207.171 142.669 206.591 144.395 205.433 145.879C204.287 147.363 202.711 148.522 200.706 149.355C198.714 150.176 196.416 150.586 193.812 150.586C189.84 150.586 186.676 149.759 184.319 148.105C181.976 146.439 180.602 144.173 180.198 141.309L188.382 140.879C188.629 142.09 189.228 143.014 190.179 143.652C191.129 144.277 192.347 144.59 193.831 144.59C195.289 144.59 196.461 144.31 197.347 143.75C198.245 143.177 198.701 142.441 198.714 141.543C198.701 140.788 198.382 140.169 197.757 139.688C197.132 139.193 196.168 138.815 194.866 138.555L189.671 137.52C186.741 136.934 184.56 135.918 183.128 134.473C181.709 133.027 180.999 131.185 180.999 128.945C180.999 127.018 181.52 125.358 182.562 123.965C183.616 122.572 185.094 121.497 186.995 120.742C188.909 119.987 191.149 119.609 193.714 119.609C197.503 119.609 200.485 120.41 202.659 122.012C204.847 123.613 206.123 125.794 206.487 128.555ZM220.965 150.566C219.051 150.566 217.345 150.234 215.848 149.57C214.35 148.893 213.165 147.897 212.293 146.582C211.434 145.254 211.004 143.6 211.004 141.621C211.004 139.954 211.31 138.555 211.922 137.422C212.534 136.289 213.367 135.378 214.422 134.687C215.477 133.997 216.674 133.477 218.016 133.125C219.37 132.773 220.789 132.526 222.273 132.383C224.018 132.201 225.424 132.031 226.492 131.875C227.56 131.706 228.335 131.458 228.816 131.133C229.298 130.807 229.539 130.326 229.539 129.687V129.57C229.539 128.333 229.148 127.376 228.367 126.699C227.599 126.022 226.505 125.684 225.086 125.684C223.589 125.684 222.397 126.016 221.512 126.68C220.626 127.331 220.04 128.151 219.754 129.141L212.059 128.516C212.449 126.693 213.217 125.117 214.363 123.789C215.509 122.448 216.987 121.419 218.797 120.703C220.62 119.974 222.729 119.609 225.125 119.609C226.792 119.609 228.387 119.805 229.91 120.195C231.447 120.586 232.807 121.191 233.992 122.012C235.19 122.832 236.134 123.887 236.824 125.176C237.514 126.452 237.859 127.982 237.859 129.766V150H229.969V145.84H229.734C229.253 146.777 228.608 147.604 227.801 148.32C226.993 149.023 226.023 149.577 224.891 149.98C223.758 150.371 222.449 150.566 220.965 150.566ZM223.348 144.824C224.572 144.824 225.652 144.583 226.59 144.102C227.527 143.607 228.263 142.943 228.797 142.109C229.331 141.276 229.598 140.332 229.598 139.277V136.094C229.337 136.263 228.979 136.419 228.523 136.562C228.081 136.693 227.579 136.816 227.02 136.934C226.46 137.038 225.9 137.135 225.34 137.227C224.78 137.305 224.272 137.376 223.816 137.441C222.84 137.585 221.987 137.812 221.258 138.125C220.529 138.437 219.962 138.861 219.559 139.395C219.155 139.915 218.953 140.566 218.953 141.348C218.953 142.48 219.363 143.346 220.184 143.945C221.017 144.531 222.072 144.824 223.348 144.824ZM251.854 141.367L251.873 131.387H253.084L262.693 120H272.244L259.334 135.078H257.361L251.854 141.367ZM244.314 150V110H252.635V150H244.314ZM263.064 150L254.236 136.934L259.783 131.055L272.811 150H263.064ZM288.763 150.586C285.677 150.586 283.021 149.961 280.794 148.711C278.58 147.448 276.875 145.664 275.677 143.359C274.479 141.042 273.88 138.301 273.88 135.137C273.88 132.051 274.479 129.342 275.677 127.012C276.875 124.681 278.561 122.865 280.735 121.562C282.923 120.26 285.488 119.609 288.431 119.609C290.41 119.609 292.252 119.928 293.958 120.566C295.677 121.191 297.174 122.135 298.45 123.398C299.739 124.661 300.742 126.25 301.458 128.164C302.174 130.065 302.532 132.292 302.532 134.844V137.129H277.2V131.973H294.7C294.7 130.775 294.44 129.714 293.919 128.789C293.398 127.865 292.675 127.142 291.751 126.621C290.84 126.087 289.778 125.82 288.567 125.82C287.304 125.82 286.185 126.113 285.208 126.699C284.244 127.272 283.489 128.047 282.942 129.023C282.396 129.987 282.116 131.061 282.103 132.246V137.148C282.103 138.633 282.376 139.915 282.923 140.996C283.483 142.077 284.271 142.91 285.286 143.496C286.302 144.082 287.506 144.375 288.899 144.375C289.824 144.375 290.67 144.245 291.438 143.984C292.207 143.724 292.864 143.333 293.411 142.812C293.958 142.292 294.375 141.654 294.661 140.898L302.356 141.406C301.966 143.255 301.165 144.87 299.954 146.25C298.756 147.617 297.207 148.685 295.306 149.453C293.418 150.208 291.237 150.586 288.763 150.586ZM316.282 132.656V150H307.962V120H315.892V125.293H316.243C316.907 123.548 318.021 122.168 319.583 121.152C321.146 120.124 323.04 119.609 325.267 119.609C327.35 119.609 329.166 120.065 330.716 120.977C332.265 121.888 333.47 123.19 334.329 124.883C335.188 126.562 335.618 128.568 335.618 130.898V150H327.298V132.383C327.311 130.547 326.842 129.115 325.892 128.086C324.941 127.044 323.632 126.523 321.966 126.523C320.846 126.523 319.856 126.764 318.997 127.246C318.151 127.728 317.487 128.431 317.005 129.355C316.536 130.267 316.295 131.367 316.282 132.656Z" fill="black"/>
<path d="M94.2124 80V54.5455H104.255C106.186 54.5455 107.83 54.9142 109.189 55.6516C110.548 56.3808 111.584 57.3958 112.297 58.6967C113.017 59.9893 113.378 61.4808 113.378 63.1712C113.378 64.8615 113.013 66.353 112.284 67.6456C111.555 68.9382 110.498 69.945 109.115 70.6658C107.739 71.3867 106.074 71.7472 104.118 71.7472H97.7173V67.4343H103.248C104.284 67.4343 105.137 67.2562 105.809 66.8999C106.488 66.5353 106.993 66.034 107.325 65.396C107.665 64.7496 107.835 64.008 107.835 63.1712C107.835 62.326 107.665 61.5885 107.325 60.9588C106.993 60.3208 106.488 59.8278 105.809 59.4798C105.129 59.1235 104.267 58.9453 103.223 58.9453H99.5941V80H94.2124ZM121.705 80.3604C120.487 80.3604 119.402 80.1491 118.449 79.7266C117.496 79.2957 116.742 78.6618 116.187 77.8249C115.64 76.9798 115.366 75.9274 115.366 74.668C115.366 73.6074 115.561 72.7166 115.951 71.9957C116.34 71.2749 116.87 70.6948 117.542 70.2557C118.213 69.8165 118.975 69.4851 119.828 69.2614C120.69 69.0376 121.593 68.8802 122.538 68.7891C123.648 68.6731 124.543 68.5653 125.223 68.4659C125.902 68.3582 126.395 68.2008 126.702 67.9936C127.008 67.7865 127.162 67.4799 127.162 67.0739V66.9993C127.162 66.2121 126.913 65.6031 126.416 65.1722C125.927 64.7414 125.231 64.5259 124.328 64.5259C123.375 64.5259 122.617 64.7372 122.053 65.1598C121.49 65.5741 121.117 66.0961 120.935 66.7259L116.038 66.3281C116.286 65.1681 116.775 64.1655 117.504 63.3203C118.233 62.4669 119.174 61.8123 120.326 61.3565C121.486 60.8925 122.828 60.6605 124.353 60.6605C125.413 60.6605 126.428 60.7848 127.398 61.0334C128.375 61.282 129.241 61.6673 129.995 62.1893C130.758 62.7113 131.358 63.3825 131.798 64.2028C132.237 65.0148 132.456 65.9884 132.456 67.1236V80H127.435V77.3526H127.286C126.979 77.9492 126.569 78.4754 126.055 78.9311C125.542 79.3786 124.924 79.7307 124.203 79.9876C123.483 80.2362 122.65 80.3604 121.705 80.3604ZM123.222 76.7063C124 76.7063 124.688 76.553 125.285 76.2464C125.881 75.9316 126.35 75.509 126.689 74.9787C127.029 74.4484 127.199 73.8477 127.199 73.1765V71.1506C127.033 71.2583 126.805 71.3577 126.515 71.4489C126.234 71.5317 125.915 71.6104 125.558 71.685C125.202 71.7513 124.846 71.8134 124.489 71.8714C124.133 71.9212 123.81 71.9667 123.52 72.0082C122.898 72.0993 122.356 72.2443 121.892 72.4432C121.428 72.642 121.067 72.9113 120.81 73.2511C120.554 73.5825 120.425 73.9968 120.425 74.494C120.425 75.2148 120.686 75.7659 121.208 76.147C121.738 76.5199 122.41 76.7063 123.222 76.7063ZM136.664 80V54.5455H141.958V64.1158H142.12C142.352 63.602 142.687 63.08 143.127 62.5497C143.574 62.0111 144.154 61.5637 144.867 61.2074C145.588 60.8428 146.482 60.6605 147.551 60.6605C148.943 60.6605 150.228 61.0251 151.404 61.7543C152.581 62.4751 153.521 63.5647 154.226 65.0231C154.93 66.4731 155.282 68.2919 155.282 70.4794C155.282 72.6089 154.938 74.407 154.251 75.8736C153.571 77.3319 152.643 78.4381 151.466 79.1921C150.298 79.9379 148.989 80.3107 147.539 80.3107C146.511 80.3107 145.637 80.1409 144.916 79.8011C144.204 79.4614 143.62 79.0347 143.164 78.521C142.708 77.9989 142.36 77.4728 142.12 76.9425H141.884V80H136.664ZM141.846 70.4545C141.846 71.5897 142.004 72.5799 142.319 73.4251C142.634 74.2702 143.089 74.929 143.686 75.4013C144.282 75.8653 145.008 76.0973 145.861 76.0973C146.723 76.0973 147.452 75.8612 148.048 75.3888C148.645 74.9083 149.097 74.2454 149.403 73.4002C149.718 72.5468 149.876 71.5649 149.876 70.4545C149.876 69.3525 149.722 68.383 149.416 67.5462C149.109 66.7093 148.657 66.0547 148.061 65.5824C147.464 65.1101 146.731 64.8739 145.861 64.8739C144.999 64.8739 144.27 65.1018 143.673 65.5575C143.085 66.0133 142.634 66.6596 142.319 67.4964C142.004 68.3333 141.846 69.3194 141.846 70.4545ZM164.11 54.5455V80H158.815V54.5455H164.11ZM176.977 80.3729C175.046 80.3729 173.377 79.9627 171.968 79.1424C170.568 78.3138 169.486 77.1621 168.724 75.6871C167.962 74.204 167.581 72.4846 167.581 70.5291C167.581 68.5571 167.962 66.8336 168.724 65.3587C169.486 63.8755 170.568 62.7237 171.968 61.9034C173.377 61.0748 175.046 60.6605 176.977 60.6605C178.908 60.6605 180.573 61.0748 181.973 61.9034C183.382 62.7237 184.467 63.8755 185.23 65.3587C185.992 66.8336 186.373 68.5571 186.373 70.5291C186.373 72.4846 185.992 74.204 185.23 75.6871C184.467 77.1621 183.382 78.3138 181.973 79.1424C180.573 79.9627 178.908 80.3729 176.977 80.3729ZM177.002 76.2713C177.88 76.2713 178.613 76.0227 179.202 75.5256C179.79 75.0201 180.233 74.3324 180.532 73.4624C180.838 72.5923 180.991 71.6022 180.991 70.4918C180.991 69.3815 180.838 68.3913 180.532 67.5213C180.233 66.6513 179.79 65.9635 179.202 65.4581C178.613 64.9527 177.88 64.6999 177.002 64.6999C176.115 64.6999 175.369 64.9527 174.765 65.4581C174.168 65.9635 173.716 66.6513 173.41 67.5213C173.112 68.3913 172.962 69.3815 172.962 70.4918C172.962 71.6022 173.112 72.5923 173.41 73.4624C173.716 74.3324 174.168 75.0201 174.765 75.5256C175.369 76.0227 176.115 76.2713 177.002 76.2713ZM211.825 61.8661C211.725 60.8635 211.299 60.0846 210.544 59.5295C209.79 58.9743 208.767 58.6967 207.475 58.6967C206.596 58.6967 205.855 58.821 205.25 59.0696C204.645 59.3099 204.181 59.6455 203.858 60.0763C203.543 60.5072 203.385 60.9961 203.385 61.543C203.369 61.9987 203.464 62.3964 203.671 62.7362C203.887 63.0759 204.181 63.37 204.554 63.6186C204.927 63.8589 205.357 64.0702 205.846 64.2525C206.335 64.4265 206.857 64.5756 207.412 64.6999L209.699 65.2468C210.81 65.4954 211.829 65.8268 212.757 66.2411C213.685 66.6554 214.489 67.165 215.168 67.7699C215.848 68.3748 216.374 69.0874 216.747 69.9077C217.128 70.728 217.322 71.6684 217.331 72.729C217.322 74.2868 216.925 75.6374 216.138 76.7809C215.359 77.9161 214.232 78.7985 212.757 79.4283C211.29 80.0497 209.521 80.3604 207.45 80.3604C205.395 80.3604 203.605 80.0456 202.08 79.4158C200.564 78.7861 199.379 77.8539 198.526 76.6193C197.68 75.3764 197.237 73.8394 197.196 72.0082H202.403C202.461 72.8616 202.706 73.5742 203.137 74.146C203.576 74.7094 204.16 75.1361 204.889 75.4261C205.627 75.7079 206.459 75.8487 207.388 75.8487C208.299 75.8487 209.09 75.7161 209.761 75.451C210.441 75.1858 210.967 74.8171 211.34 74.3448C211.713 73.8725 211.899 73.3298 211.899 72.7166C211.899 72.1449 211.729 71.6643 211.39 71.2749C211.058 70.8854 210.569 70.554 209.923 70.2805C209.285 70.0071 208.502 69.7585 207.574 69.5348L204.802 68.8388C202.656 68.3168 200.962 67.5006 199.719 66.3903C198.476 65.2799 197.859 63.7843 197.867 61.9034C197.859 60.3622 198.269 59.0157 199.097 57.864C199.934 56.7122 201.082 55.8132 202.54 55.1669C203.999 54.5206 205.656 54.1974 207.512 54.1974C209.401 54.1974 211.05 54.5206 212.459 55.1669C213.875 55.8132 214.977 56.7122 215.765 57.864C216.552 59.0157 216.958 60.3498 216.983 61.8661H211.825ZM220.851 80V60.9091H225.984V64.2401H226.183C226.531 63.0552 227.115 62.1603 227.936 61.5554C228.756 60.9422 229.701 60.6357 230.77 60.6357C231.035 60.6357 231.321 60.6522 231.627 60.6854C231.934 60.7185 232.203 60.7641 232.435 60.8221V65.5202C232.186 65.4457 231.843 65.3794 231.403 65.3214C230.964 65.2634 230.562 65.2344 230.198 65.2344C229.419 65.2344 228.723 65.4042 228.11 65.744C227.505 66.0754 227.024 66.5394 226.668 67.136C226.32 67.7326 226.146 68.4203 226.146 69.1992V80H220.851ZM242.984 80.3729C241.02 80.3729 239.33 79.9751 237.913 79.1797C236.504 78.3759 235.419 77.2408 234.657 75.7741C233.894 74.2992 233.513 72.555 233.513 70.5415C233.513 68.5778 233.894 66.8543 234.657 65.3711C235.419 63.8879 236.492 62.732 237.876 61.9034C239.268 61.0748 240.9 60.6605 242.773 60.6605C244.032 60.6605 245.205 60.8635 246.29 61.2695C247.384 61.6673 248.337 62.268 249.149 63.0717C249.969 63.8755 250.607 64.8864 251.063 66.1044C251.519 67.3142 251.747 68.7311 251.747 70.3551V71.8093H235.626V68.5281H246.763C246.763 67.7657 246.597 67.0904 246.265 66.5021C245.934 65.9138 245.474 65.454 244.886 65.1225C244.306 64.7828 243.63 64.6129 242.86 64.6129C242.056 64.6129 241.343 64.7994 240.722 65.1722C240.109 65.5368 239.628 66.0298 239.28 66.6513C238.932 67.2644 238.754 67.948 238.746 68.7021V71.8217C238.746 72.7663 238.92 73.5825 239.268 74.2702C239.624 74.958 240.125 75.4883 240.772 75.8612C241.418 76.234 242.185 76.4205 243.071 76.4205C243.659 76.4205 244.198 76.3376 244.687 76.1719C245.176 76.0062 245.594 75.7576 245.942 75.4261C246.29 75.0947 246.555 74.6887 246.738 74.2081L251.635 74.5312C251.386 75.7079 250.877 76.7353 250.106 77.6136C249.344 78.4837 248.358 79.1631 247.148 79.652C245.946 80.1326 244.558 80.3729 242.984 80.3729ZM255.202 80V60.9091H260.497V80H255.202ZM257.862 58.4482C257.074 58.4482 256.399 58.1871 255.836 57.6651C255.281 57.1348 255.003 56.5009 255.003 55.7635C255.003 55.0343 255.281 54.4087 255.836 53.8867C256.399 53.3564 257.074 53.0913 257.862 53.0913C258.649 53.0913 259.32 53.3564 259.875 53.8867C260.439 54.4087 260.72 55.0343 260.72 55.7635C260.72 56.5009 260.439 57.1348 259.875 57.6651C259.32 58.1871 258.649 58.4482 257.862 58.4482ZM270.033 68.9631V80H264.738V54.5455H269.884V64.2773H270.107C270.538 63.1504 271.234 62.268 272.195 61.63C273.156 60.9837 274.362 60.6605 275.812 60.6605C277.138 60.6605 278.294 60.9505 279.28 61.5305C280.274 62.1023 281.045 62.9267 281.592 64.0039C282.147 65.0728 282.42 66.353 282.412 67.8445V80H277.117V68.7891C277.125 67.6125 276.827 66.6969 276.222 66.0423C275.626 65.3877 274.789 65.0604 273.712 65.0604C272.991 65.0604 272.353 65.2137 271.798 65.5202C271.251 65.8268 270.82 66.2743 270.505 66.8626C270.198 67.4426 270.041 68.1428 270.033 68.9631Z" fill="#888888"/>
<path d="M144.391 229V213H150.703C151.911 213 152.943 213.216 153.797 213.648C154.656 214.076 155.31 214.682 155.758 215.469C156.211 216.25 156.438 217.169 156.438 218.227C156.438 219.289 156.208 220.203 155.75 220.969C155.292 221.729 154.628 222.312 153.758 222.719C152.893 223.125 151.846 223.328 150.617 223.328H146.391V220.609H150.07C150.716 220.609 151.253 220.521 151.68 220.344C152.107 220.167 152.424 219.901 152.633 219.547C152.846 219.193 152.953 218.753 152.953 218.227C152.953 217.695 152.846 217.247 152.633 216.883C152.424 216.518 152.104 216.242 151.672 216.055C151.245 215.862 150.706 215.766 150.055 215.766H147.773V229H144.391ZM153.031 221.719L157.008 229H153.273L149.383 221.719H153.031ZM164.041 229.234C162.807 229.234 161.744 228.984 160.854 228.484C159.968 227.979 159.286 227.266 158.807 226.344C158.327 225.417 158.088 224.32 158.088 223.055C158.088 221.82 158.327 220.737 158.807 219.805C159.286 218.872 159.96 218.146 160.83 217.625C161.705 217.104 162.731 216.844 163.908 216.844C164.7 216.844 165.437 216.971 166.119 217.227C166.807 217.477 167.406 217.854 167.916 218.359C168.432 218.865 168.833 219.5 169.119 220.266C169.406 221.026 169.549 221.917 169.549 222.937V223.852H159.416V221.789H166.416C166.416 221.31 166.312 220.885 166.104 220.516C165.895 220.146 165.606 219.857 165.236 219.648C164.872 219.435 164.447 219.328 163.963 219.328C163.458 219.328 163.01 219.445 162.619 219.68C162.234 219.909 161.932 220.219 161.713 220.609C161.494 220.995 161.382 221.424 161.377 221.898V223.859C161.377 224.453 161.486 224.966 161.705 225.398C161.929 225.831 162.244 226.164 162.65 226.398C163.057 226.633 163.538 226.75 164.096 226.75C164.465 226.75 164.804 226.698 165.111 226.594C165.419 226.49 165.682 226.333 165.9 226.125C166.119 225.917 166.286 225.661 166.4 225.359L169.479 225.562C169.322 226.302 169.002 226.948 168.518 227.5C168.038 228.047 167.419 228.474 166.658 228.781C165.903 229.083 165.031 229.234 164.041 229.234ZM175.143 229.227C174.377 229.227 173.695 229.094 173.096 228.828C172.497 228.557 172.023 228.159 171.674 227.633C171.33 227.102 171.158 226.44 171.158 225.648C171.158 224.982 171.281 224.422 171.525 223.969C171.77 223.516 172.104 223.151 172.525 222.875C172.947 222.599 173.426 222.391 173.963 222.25C174.505 222.109 175.072 222.01 175.666 221.953C176.364 221.88 176.926 221.812 177.354 221.75C177.781 221.682 178.09 221.583 178.283 221.453C178.476 221.323 178.572 221.13 178.572 220.875V220.828C178.572 220.333 178.416 219.951 178.104 219.68C177.796 219.409 177.359 219.273 176.791 219.273C176.192 219.273 175.715 219.406 175.361 219.672C175.007 219.932 174.773 220.26 174.658 220.656L171.58 220.406C171.736 219.677 172.044 219.047 172.502 218.516C172.96 217.979 173.551 217.568 174.275 217.281C175.005 216.99 175.848 216.844 176.807 216.844C177.473 216.844 178.111 216.922 178.721 217.078C179.335 217.234 179.88 217.477 180.354 217.805C180.833 218.133 181.21 218.555 181.486 219.07C181.762 219.581 181.9 220.193 181.9 220.906V229H178.744V227.336H178.65C178.458 227.711 178.2 228.042 177.877 228.328C177.554 228.609 177.166 228.831 176.713 228.992C176.26 229.148 175.736 229.227 175.143 229.227ZM176.096 226.93C176.585 226.93 177.018 226.833 177.393 226.641C177.768 226.443 178.062 226.177 178.275 225.844C178.489 225.51 178.596 225.133 178.596 224.711V223.438C178.492 223.505 178.348 223.568 178.166 223.625C177.989 223.677 177.788 223.727 177.564 223.773C177.34 223.815 177.117 223.854 176.893 223.891C176.669 223.922 176.465 223.951 176.283 223.977C175.893 224.034 175.551 224.125 175.26 224.25C174.968 224.375 174.742 224.544 174.58 224.758C174.419 224.966 174.338 225.227 174.338 225.539C174.338 225.992 174.502 226.339 174.83 226.578C175.163 226.812 175.585 226.93 176.096 226.93ZM189.904 229.234C188.675 229.234 187.618 228.974 186.732 228.453C185.852 227.927 185.175 227.198 184.701 226.266C184.232 225.333 183.998 224.26 183.998 223.047C183.998 221.818 184.235 220.74 184.709 219.812C185.188 218.88 185.868 218.154 186.748 217.633C187.628 217.107 188.675 216.844 189.889 216.844C190.936 216.844 191.852 217.034 192.639 217.414C193.425 217.794 194.048 218.328 194.506 219.016C194.964 219.703 195.217 220.51 195.264 221.438H192.123C192.035 220.839 191.8 220.357 191.42 219.992C191.045 219.622 190.553 219.437 189.943 219.437C189.428 219.437 188.977 219.578 188.592 219.859C188.212 220.135 187.915 220.539 187.701 221.07C187.488 221.602 187.381 222.245 187.381 223C187.381 223.766 187.485 224.417 187.693 224.953C187.907 225.49 188.206 225.898 188.592 226.18C188.977 226.461 189.428 226.602 189.943 226.602C190.324 226.602 190.665 226.523 190.967 226.367C191.274 226.211 191.527 225.984 191.725 225.687C191.928 225.385 192.061 225.023 192.123 224.602H195.264C195.212 225.518 194.962 226.326 194.514 227.023C194.071 227.716 193.459 228.258 192.678 228.648C191.896 229.039 190.972 229.234 189.904 229.234ZM203.777 217V219.5H196.551V217H203.777ZM198.191 214.125H201.52V225.312C201.52 225.62 201.566 225.859 201.66 226.031C201.754 226.198 201.884 226.315 202.051 226.383C202.223 226.451 202.421 226.484 202.645 226.484C202.801 226.484 202.957 226.471 203.113 226.445C203.27 226.414 203.389 226.391 203.473 226.375L203.996 228.852C203.829 228.904 203.595 228.964 203.293 229.031C202.991 229.104 202.624 229.148 202.191 229.164C201.389 229.195 200.686 229.089 200.082 228.844C199.483 228.599 199.017 228.219 198.684 227.703C198.35 227.187 198.186 226.536 198.191 225.75V214.125ZM224.482 213V229H221.561L214.6 218.93H214.482V229H211.1V213H214.068L220.975 223.062H221.115V213H224.482ZM230.637 229.227C229.871 229.227 229.189 229.094 228.59 228.828C227.991 228.557 227.517 228.159 227.168 227.633C226.824 227.102 226.652 226.44 226.652 225.648C226.652 224.982 226.775 224.422 227.02 223.969C227.264 223.516 227.598 223.151 228.02 222.875C228.441 222.599 228.921 222.391 229.457 222.25C229.999 222.109 230.566 222.01 231.16 221.953C231.858 221.88 232.421 221.812 232.848 221.75C233.275 221.682 233.585 221.583 233.777 221.453C233.97 221.323 234.066 221.13 234.066 220.875V220.828C234.066 220.333 233.91 219.951 233.598 219.68C233.29 219.409 232.853 219.273 232.285 219.273C231.686 219.273 231.21 219.406 230.855 219.672C230.501 219.932 230.267 220.26 230.152 220.656L227.074 220.406C227.23 219.677 227.538 219.047 227.996 218.516C228.454 217.979 229.046 217.568 229.77 217.281C230.499 216.99 231.342 216.844 232.301 216.844C232.967 216.844 233.605 216.922 234.215 217.078C234.829 217.234 235.374 217.477 235.848 217.805C236.327 218.133 236.704 218.555 236.98 219.07C237.257 219.581 237.395 220.193 237.395 220.906V229H234.238V227.336H234.145C233.952 227.711 233.694 228.042 233.371 228.328C233.048 228.609 232.66 228.831 232.207 228.992C231.754 229.148 231.23 229.227 230.637 229.227ZM231.59 226.93C232.079 226.93 232.512 226.833 232.887 226.641C233.262 226.443 233.556 226.177 233.77 225.844C233.983 225.51 234.09 225.133 234.09 224.711V223.438C233.986 223.505 233.842 223.568 233.66 223.625C233.483 223.677 233.283 223.727 233.059 223.773C232.835 223.815 232.611 223.854 232.387 223.891C232.163 223.922 231.96 223.951 231.777 223.977C231.387 224.034 231.046 224.125 230.754 224.25C230.462 224.375 230.236 224.544 230.074 224.758C229.913 224.966 229.832 225.227 229.832 225.539C229.832 225.992 229.996 226.339 230.324 226.578C230.658 226.812 231.079 226.93 231.59 226.93ZM246.359 217V219.5H239.133V217H246.359ZM240.773 214.125H244.102V225.312C244.102 225.62 244.148 225.859 244.242 226.031C244.336 226.198 244.466 226.315 244.633 226.383C244.805 226.451 245.003 226.484 245.227 226.484C245.383 226.484 245.539 226.471 245.695 226.445C245.852 226.414 245.971 226.391 246.055 226.375L246.578 228.852C246.411 228.904 246.177 228.964 245.875 229.031C245.573 229.104 245.206 229.148 244.773 229.164C243.971 229.195 243.268 229.089 242.664 228.844C242.065 228.599 241.599 228.219 241.266 227.703C240.932 227.187 240.768 226.536 240.773 225.75V214.125ZM248.527 229V217H251.855V229H248.527ZM250.199 215.453C249.704 215.453 249.28 215.289 248.926 214.961C248.577 214.628 248.402 214.229 248.402 213.766C248.402 213.307 248.577 212.914 248.926 212.586C249.28 212.253 249.704 212.086 250.199 212.086C250.694 212.086 251.116 212.253 251.465 212.586C251.819 212.914 251.996 213.307 251.996 213.766C251.996 214.229 251.819 214.628 251.465 214.961C251.116 215.289 250.694 215.453 250.199 215.453ZM265.709 217L261.514 229H257.764L253.568 217H257.084L259.576 225.586H259.701L262.186 217H265.709ZM272.494 229.234C271.26 229.234 270.197 228.984 269.307 228.484C268.421 227.979 267.739 227.266 267.26 226.344C266.781 225.417 266.541 224.32 266.541 223.055C266.541 221.82 266.781 220.737 267.26 219.805C267.739 218.872 268.413 218.146 269.283 217.625C270.158 217.104 271.184 216.844 272.361 216.844C273.153 216.844 273.89 216.971 274.572 217.227C275.26 217.477 275.859 217.854 276.369 218.359C276.885 218.865 277.286 219.5 277.572 220.266C277.859 221.026 278.002 221.917 278.002 222.937V223.852H267.869V221.789H274.869C274.869 221.31 274.765 220.885 274.557 220.516C274.348 220.146 274.059 219.857 273.689 219.648C273.325 219.435 272.9 219.328 272.416 219.328C271.911 219.328 271.463 219.445 271.072 219.68C270.687 219.909 270.385 220.219 270.166 220.609C269.947 220.995 269.835 221.424 269.83 221.898V223.859C269.83 224.453 269.939 224.966 270.158 225.398C270.382 225.831 270.697 226.164 271.104 226.398C271.51 226.633 271.992 226.75 272.549 226.75C272.919 226.75 273.257 226.698 273.564 226.594C273.872 226.49 274.135 226.333 274.354 226.125C274.572 225.917 274.739 225.661 274.854 225.359L277.932 225.562C277.775 226.302 277.455 226.948 276.971 227.5C276.492 228.047 275.872 228.474 275.111 228.781C274.356 229.083 273.484 229.234 272.494 229.234Z" fill="white"/>
<path d="M413.391 229V213H419.703C420.911 213 421.943 213.216 422.797 213.648C423.656 214.076 424.31 214.682 424.758 215.469C425.211 216.25 425.438 217.169 425.438 218.227C425.438 219.289 425.208 220.203 424.75 220.969C424.292 221.729 423.628 222.312 422.758 222.719C421.893 223.125 420.846 223.328 419.617 223.328H415.391V220.609H419.07C419.716 220.609 420.253 220.521 420.68 220.344C421.107 220.167 421.424 219.901 421.633 219.547C421.846 219.193 421.953 218.753 421.953 218.227C421.953 217.695 421.846 217.247 421.633 216.883C421.424 216.518 421.104 216.242 420.672 216.055C420.245 215.862 419.706 215.766 419.055 215.766H416.773V229H413.391ZM422.031 221.719L426.008 229H422.273L418.383 221.719H422.031ZM433.041 229.234C431.807 229.234 430.744 228.984 429.854 228.484C428.968 227.979 428.286 227.266 427.807 226.344C427.327 225.417 427.088 224.32 427.088 223.055C427.088 221.82 427.327 220.737 427.807 219.805C428.286 218.872 428.96 218.146 429.83 217.625C430.705 217.104 431.731 216.844 432.908 216.844C433.7 216.844 434.437 216.971 435.119 217.227C435.807 217.477 436.406 217.854 436.916 218.359C437.432 218.865 437.833 219.5 438.119 220.266C438.406 221.026 438.549 221.917 438.549 222.937V223.852H428.416V221.789H435.416C435.416 221.31 435.312 220.885 435.104 220.516C434.895 220.146 434.606 219.857 434.236 219.648C433.872 219.435 433.447 219.328 432.963 219.328C432.458 219.328 432.01 219.445 431.619 219.68C431.234 219.909 430.932 220.219 430.713 220.609C430.494 220.995 430.382 221.424 430.377 221.898V223.859C430.377 224.453 430.486 224.966 430.705 225.398C430.929 225.831 431.244 226.164 431.65 226.398C432.057 226.633 432.538 226.75 433.096 226.75C433.465 226.75 433.804 226.698 434.111 226.594C434.419 226.49 434.682 226.333 434.9 226.125C435.119 225.917 435.286 225.661 435.4 225.359L438.479 225.562C438.322 226.302 438.002 226.948 437.518 227.5C437.038 228.047 436.419 228.474 435.658 228.781C434.903 229.083 434.031 229.234 433.041 229.234ZM444.143 229.227C443.377 229.227 442.695 229.094 442.096 228.828C441.497 228.557 441.023 228.159 440.674 227.633C440.33 227.102 440.158 226.44 440.158 225.648C440.158 224.982 440.281 224.422 440.525 223.969C440.77 223.516 441.104 223.151 441.525 222.875C441.947 222.599 442.426 222.391 442.963 222.25C443.505 222.109 444.072 222.01 444.666 221.953C445.364 221.88 445.926 221.812 446.354 221.75C446.781 221.682 447.09 221.583 447.283 221.453C447.476 221.323 447.572 221.13 447.572 220.875V220.828C447.572 220.333 447.416 219.951 447.104 219.68C446.796 219.409 446.359 219.273 445.791 219.273C445.192 219.273 444.715 219.406 444.361 219.672C444.007 219.932 443.773 220.26 443.658 220.656L440.58 220.406C440.736 219.677 441.044 219.047 441.502 218.516C441.96 217.979 442.551 217.568 443.275 217.281C444.005 216.99 444.848 216.844 445.807 216.844C446.473 216.844 447.111 216.922 447.721 217.078C448.335 217.234 448.88 217.477 449.354 217.805C449.833 218.133 450.21 218.555 450.486 219.07C450.762 219.581 450.9 220.193 450.9 220.906V229H447.744V227.336H447.65C447.458 227.711 447.2 228.042 446.877 228.328C446.554 228.609 446.166 228.831 445.713 228.992C445.26 229.148 444.736 229.227 444.143 229.227ZM445.096 226.93C445.585 226.93 446.018 226.833 446.393 226.641C446.768 226.443 447.062 226.177 447.275 225.844C447.489 225.51 447.596 225.133 447.596 224.711V223.438C447.492 223.505 447.348 223.568 447.166 223.625C446.989 223.677 446.788 223.727 446.564 223.773C446.34 223.815 446.117 223.854 445.893 223.891C445.669 223.922 445.465 223.951 445.283 223.977C444.893 224.034 444.551 224.125 444.26 224.25C443.968 224.375 443.742 224.544 443.58 224.758C443.419 224.966 443.338 225.227 443.338 225.539C443.338 225.992 443.502 226.339 443.83 226.578C444.163 226.812 444.585 226.93 445.096 226.93ZM458.904 229.234C457.675 229.234 456.618 228.974 455.732 228.453C454.852 227.927 454.175 227.198 453.701 226.266C453.232 225.333 452.998 224.26 452.998 223.047C452.998 221.818 453.235 220.74 453.709 219.812C454.188 218.88 454.868 218.154 455.748 217.633C456.628 217.107 457.675 216.844 458.889 216.844C459.936 216.844 460.852 217.034 461.639 217.414C462.425 217.794 463.048 218.328 463.506 219.016C463.964 219.703 464.217 220.51 464.264 221.438H461.123C461.035 220.839 460.8 220.357 460.42 219.992C460.045 219.622 459.553 219.437 458.943 219.437C458.428 219.437 457.977 219.578 457.592 219.859C457.212 220.135 456.915 220.539 456.701 221.07C456.488 221.602 456.381 222.245 456.381 223C456.381 223.766 456.485 224.417 456.693 224.953C456.907 225.49 457.206 225.898 457.592 226.18C457.977 226.461 458.428 226.602 458.943 226.602C459.324 226.602 459.665 226.523 459.967 226.367C460.274 226.211 460.527 225.984 460.725 225.687C460.928 225.385 461.061 225.023 461.123 224.602H464.264C464.212 225.518 463.962 226.326 463.514 227.023C463.071 227.716 462.459 228.258 461.678 228.648C460.896 229.039 459.972 229.234 458.904 229.234ZM472.777 217V219.5H465.551V217H472.777ZM467.191 214.125H470.52V225.312C470.52 225.62 470.566 225.859 470.66 226.031C470.754 226.198 470.884 226.315 471.051 226.383C471.223 226.451 471.421 226.484 471.645 226.484C471.801 226.484 471.957 226.471 472.113 226.445C472.27 226.414 472.389 226.391 472.473 226.375L472.996 228.852C472.829 228.904 472.595 228.964 472.293 229.031C471.991 229.104 471.624 229.148 471.191 229.164C470.389 229.195 469.686 229.089 469.082 228.844C468.483 228.599 468.017 228.219 467.684 227.703C467.35 227.187 467.186 226.536 467.191 225.75V214.125Z" fill="white"/>
<path d="M637.391 229V213H640.773V226.211H647.633V229H637.391ZM653.232 229.227C652.467 229.227 651.785 229.094 651.186 228.828C650.587 228.557 650.113 228.159 649.764 227.633C649.42 227.102 649.248 226.44 649.248 225.648C649.248 224.982 649.37 224.422 649.615 223.969C649.86 223.516 650.193 223.151 650.615 222.875C651.037 222.599 651.516 222.391 652.053 222.25C652.594 222.109 653.162 222.01 653.756 221.953C654.454 221.88 655.016 221.812 655.443 221.75C655.87 221.682 656.18 221.583 656.373 221.453C656.566 221.323 656.662 221.13 656.662 220.875V220.828C656.662 220.333 656.506 219.951 656.193 219.68C655.886 219.409 655.449 219.273 654.881 219.273C654.282 219.273 653.805 219.406 653.451 219.672C653.097 219.932 652.863 220.26 652.748 220.656L649.67 220.406C649.826 219.677 650.133 219.047 650.592 218.516C651.05 217.979 651.641 217.568 652.365 217.281C653.094 216.99 653.938 216.844 654.896 216.844C655.563 216.844 656.201 216.922 656.811 217.078C657.425 217.234 657.969 217.477 658.443 217.805C658.923 218.133 659.3 218.555 659.576 219.07C659.852 219.581 659.99 220.193 659.99 220.906V229H656.834V227.336H656.74C656.548 227.711 656.29 228.042 655.967 228.328C655.644 228.609 655.256 228.831 654.803 228.992C654.35 229.148 653.826 229.227 653.232 229.227ZM654.186 226.93C654.675 226.93 655.107 226.833 655.482 226.641C655.857 226.443 656.152 226.177 656.365 225.844C656.579 225.51 656.686 225.133 656.686 224.711V223.438C656.581 223.505 656.438 223.568 656.256 223.625C656.079 223.677 655.878 223.727 655.654 223.773C655.43 223.815 655.206 223.854 654.982 223.891C654.758 223.922 654.555 223.951 654.373 223.977C653.982 224.034 653.641 224.125 653.35 224.25C653.058 224.375 652.831 224.544 652.67 224.758C652.508 224.966 652.428 225.227 652.428 225.539C652.428 225.992 652.592 226.339 652.92 226.578C653.253 226.812 653.675 226.93 654.186 226.93ZM662.572 229V217H665.799V219.094H665.924C666.143 218.349 666.51 217.786 667.025 217.406C667.541 217.021 668.135 216.828 668.807 216.828C668.973 216.828 669.153 216.839 669.346 216.859C669.538 216.88 669.708 216.909 669.854 216.945V219.898C669.697 219.852 669.481 219.81 669.205 219.773C668.929 219.737 668.676 219.719 668.447 219.719C667.958 219.719 667.52 219.826 667.135 220.039C666.755 220.247 666.452 220.539 666.229 220.914C666.01 221.289 665.9 221.721 665.9 222.211V229H662.572ZM674.652 229.227C673.887 229.227 673.204 229.094 672.605 228.828C672.007 228.557 671.533 228.159 671.184 227.633C670.84 227.102 670.668 226.44 670.668 225.648C670.668 224.982 670.79 224.422 671.035 223.969C671.28 223.516 671.613 223.151 672.035 222.875C672.457 222.599 672.936 222.391 673.473 222.25C674.014 222.109 674.582 222.01 675.176 221.953C675.874 221.88 676.436 221.812 676.863 221.75C677.29 221.682 677.6 221.583 677.793 221.453C677.986 221.323 678.082 221.13 678.082 220.875V220.828C678.082 220.333 677.926 219.951 677.613 219.68C677.306 219.409 676.868 219.273 676.301 219.273C675.702 219.273 675.225 219.406 674.871 219.672C674.517 219.932 674.283 220.26 674.168 220.656L671.09 220.406C671.246 219.677 671.553 219.047 672.012 218.516C672.47 217.979 673.061 217.568 673.785 217.281C674.514 216.99 675.358 216.844 676.316 216.844C676.983 216.844 677.621 216.922 678.23 217.078C678.845 217.234 679.389 217.477 679.863 217.805C680.342 218.133 680.72 218.555 680.996 219.07C681.272 219.581 681.41 220.193 681.41 220.906V229H678.254V227.336H678.16C677.967 227.711 677.71 228.042 677.387 228.328C677.064 228.609 676.676 228.831 676.223 228.992C675.77 229.148 675.246 229.227 674.652 229.227ZM675.605 226.93C676.095 226.93 676.527 226.833 676.902 226.641C677.277 226.443 677.572 226.177 677.785 225.844C677.999 225.51 678.105 225.133 678.105 224.711V223.438C678.001 223.505 677.858 223.568 677.676 223.625C677.499 223.677 677.298 223.727 677.074 223.773C676.85 223.815 676.626 223.854 676.402 223.891C676.178 223.922 675.975 223.951 675.793 223.977C675.402 224.034 675.061 224.125 674.77 224.25C674.478 224.375 674.251 224.544 674.09 224.758C673.928 224.966 673.848 225.227 673.848 225.539C673.848 225.992 674.012 226.339 674.34 226.578C674.673 226.812 675.095 226.93 675.605 226.93ZM694.75 217L690.555 229H686.805L682.609 217H686.125L688.617 225.586H688.742L691.227 217H694.75ZM701.535 229.234C700.301 229.234 699.238 228.984 698.348 228.484C697.462 227.979 696.78 227.266 696.301 226.344C695.822 225.417 695.582 224.32 695.582 223.055C695.582 221.82 695.822 220.737 696.301 219.805C696.78 218.872 697.454 218.146 698.324 217.625C699.199 217.104 700.225 216.844 701.402 216.844C702.194 216.844 702.931 216.971 703.613 217.227C704.301 217.477 704.9 217.854 705.41 218.359C705.926 218.865 706.327 219.5 706.613 220.266C706.9 221.026 707.043 221.917 707.043 222.937V223.852H696.91V221.789H703.91C703.91 221.31 703.806 220.885 703.598 220.516C703.389 220.146 703.1 219.857 702.73 219.648C702.366 219.435 701.941 219.328 701.457 219.328C700.952 219.328 700.504 219.445 700.113 219.68C699.728 219.909 699.426 220.219 699.207 220.609C698.988 220.995 698.876 221.424 698.871 221.898V223.859C698.871 224.453 698.98 224.966 699.199 225.398C699.423 225.831 699.738 226.164 700.145 226.398C700.551 226.633 701.033 226.75 701.59 226.75C701.96 226.75 702.298 226.698 702.605 226.594C702.913 226.49 703.176 226.333 703.395 226.125C703.613 225.917 703.78 225.661 703.895 225.359L706.973 225.562C706.816 226.302 706.496 226.948 706.012 227.5C705.533 228.047 704.913 228.474 704.152 228.781C703.397 229.083 702.525 229.234 701.535 229.234ZM712.543 213V229H709.215V213H712.543Z" fill="white"/>
<path d="M869.391 213H873.562L877.969 223.75H878.156L882.562 213H886.734V229H883.453V218.586H883.32L879.18 228.922H876.945L872.805 218.547H872.672V229H869.391V213ZM891.514 233.5C891.092 233.5 890.696 233.466 890.326 233.398C889.962 233.336 889.66 233.255 889.42 233.156L890.17 230.672C890.561 230.792 890.912 230.857 891.225 230.867C891.542 230.878 891.816 230.805 892.045 230.648C892.279 230.492 892.469 230.227 892.615 229.852L892.811 229.344L888.506 217H892.006L894.49 225.812H894.615L897.123 217H900.646L895.982 230.297C895.758 230.943 895.454 231.505 895.068 231.984C894.688 232.469 894.206 232.841 893.623 233.102C893.04 233.367 892.337 233.5 891.514 233.5ZM911.092 217.602C911.029 216.971 910.761 216.482 910.287 216.133C909.813 215.784 909.17 215.609 908.357 215.609C907.805 215.609 907.339 215.687 906.959 215.844C906.579 215.995 906.287 216.206 906.084 216.477C905.886 216.747 905.787 217.055 905.787 217.398C905.777 217.685 905.837 217.935 905.967 218.148C906.102 218.362 906.287 218.547 906.521 218.703C906.756 218.854 907.027 218.987 907.334 219.102C907.641 219.211 907.969 219.305 908.318 219.383L909.756 219.727C910.454 219.883 911.094 220.091 911.678 220.352C912.261 220.612 912.766 220.932 913.193 221.312C913.62 221.693 913.951 222.141 914.186 222.656C914.425 223.172 914.548 223.763 914.553 224.43C914.548 225.409 914.298 226.258 913.803 226.977C913.313 227.69 912.605 228.245 911.678 228.641C910.756 229.031 909.644 229.227 908.342 229.227C907.05 229.227 905.925 229.029 904.967 228.633C904.014 228.237 903.269 227.651 902.732 226.875C902.201 226.094 901.923 225.128 901.896 223.977H905.17C905.206 224.513 905.36 224.961 905.631 225.32C905.907 225.674 906.274 225.943 906.732 226.125C907.196 226.302 907.719 226.391 908.303 226.391C908.876 226.391 909.373 226.307 909.795 226.141C910.222 225.974 910.553 225.742 910.787 225.445C911.021 225.148 911.139 224.807 911.139 224.422C911.139 224.062 911.032 223.76 910.818 223.516C910.61 223.271 910.303 223.062 909.896 222.891C909.495 222.719 909.003 222.562 908.42 222.422L906.678 221.984C905.329 221.656 904.264 221.143 903.482 220.445C902.701 219.747 902.313 218.807 902.318 217.625C902.313 216.656 902.571 215.81 903.092 215.086C903.618 214.362 904.339 213.797 905.256 213.391C906.173 212.984 907.214 212.781 908.381 212.781C909.568 212.781 910.605 212.984 911.49 213.391C912.381 213.797 913.074 214.362 913.568 215.086C914.063 215.81 914.318 216.648 914.334 217.602H911.092ZM922.867 223.438H925.742L927.188 225.297L928.609 226.953L931.289 230.313H928.133L926.289 228.047L925.344 226.703L922.867 223.438ZM931.531 221C931.531 222.745 931.201 224.229 930.539 225.453C929.883 226.677 928.987 227.612 927.852 228.258C926.721 228.898 925.451 229.219 924.039 229.219C922.617 229.219 921.341 228.896 920.211 228.25C919.081 227.604 918.188 226.669 917.531 225.445C916.875 224.221 916.547 222.74 916.547 221C916.547 219.255 916.875 217.771 917.531 216.547C918.188 215.323 919.081 214.391 920.211 213.75C921.341 213.104 922.617 212.781 924.039 212.781C925.451 212.781 926.721 213.104 927.852 213.75C928.987 214.391 929.883 215.323 930.539 216.547C931.201 217.771 931.531 219.255 931.531 221ZM928.102 221C928.102 219.87 927.932 218.917 927.594 218.141C927.26 217.365 926.789 216.776 926.18 216.375C925.57 215.974 924.857 215.773 924.039 215.773C923.221 215.773 922.508 215.974 921.898 216.375C921.289 216.776 920.815 217.365 920.477 218.141C920.143 218.917 919.977 219.87 919.977 221C919.977 222.13 920.143 223.083 920.477 223.859C920.815 224.635 921.289 225.224 921.898 225.625C922.508 226.026 923.221 226.227 924.039 226.227C924.857 226.227 925.57 226.026 926.18 225.625C926.789 225.224 927.26 224.635 927.594 223.859C927.932 223.083 928.102 222.13 928.102 221ZM934.037 229V213H937.42V226.211H944.279V229H934.037Z" fill="white"/>
</svg>
