<svg width="1363" height="167" viewBox="0 0 1363 167" fill="none" xmlns="http://www.w3.org/2000/svg">
<path d="M1348 0H15C6.71573 0 0 6.71573 0 15V152C0 160.284 6.71573 167 15 167H1348C1356.28 167 1363 160.284 1363 152V15C1363 6.71573 1356.28 0 1348 0Z" fill="#F0F0F0"/>
<path d="M0 15C0 6.71573 6.71573 0 15 0H37V167H15C6.71573 167 0 160.284 0 152V15Z" fill="#FF0000"/>
<path d="M100.906 54.9219L93.3945 52.2383V49.0859L103.602 53.375V55.6367L100.906 54.9219ZM93.3945 57.1719L100.918 54.4297L103.602 53.7852V56.0352L93.3945 60.3242V57.1719Z" fill="#888888"/>
<path d="M101.822 112.1L108.194 83.0078H111.995L114.061 85.4907L107.271 115H103.074L101.822 112.1ZM100.13 83.0078L105.513 112.319L104.129 115H99.2729L92.4834 83.0078H100.13ZM117.554 112.166L122.894 83.0078H130.518L123.729 115H118.895L117.554 112.166ZM114.742 83.0078L121.268 112.275L119.949 115H115.752L108.809 85.4468L110.962 83.0078H114.742ZM141.021 91.2256V115H133.594V91.2256H141.021ZM133.155 85.0952C133.155 84.0405 133.536 83.1763 134.297 82.5024C135.059 81.8286 136.048 81.4917 137.264 81.4917C138.479 81.4917 139.468 81.8286 140.23 82.5024C140.992 83.1763 141.373 84.0405 141.373 85.0952C141.373 86.1499 140.992 87.0142 140.23 87.688C139.468 88.3618 138.479 88.6987 137.264 88.6987C136.048 88.6987 135.059 88.3618 134.297 87.688C133.536 87.0142 133.155 86.1499 133.155 85.0952ZM153.062 97.1143V115H145.657V91.2256H152.579L153.062 97.1143ZM160.093 91.0498L159.961 97.9272C159.668 97.8979 159.273 97.8613 158.775 97.8174C158.277 97.7734 157.859 97.7515 157.522 97.7515C156.658 97.7515 155.911 97.854 155.281 98.0591C154.666 98.2495 154.153 98.5425 153.743 98.938C153.348 99.3188 153.055 99.8022 152.864 100.388C152.688 100.974 152.608 101.655 152.623 102.432L151.282 101.553C151.282 99.9561 151.436 98.5059 151.744 97.2021C152.066 95.8838 152.52 94.7485 153.106 93.7964C153.692 92.8296 154.402 92.0898 155.237 91.5771C156.072 91.0498 157.01 90.7861 158.05 90.7861C158.416 90.7861 158.775 90.8081 159.126 90.8521C159.493 90.896 159.815 90.9619 160.093 91.0498ZM173.716 115.439C171.783 115.439 170.054 115.139 168.531 114.539C167.007 113.923 165.718 113.081 164.664 112.012C163.624 110.942 162.825 109.712 162.269 108.32C161.727 106.929 161.456 105.457 161.456 103.904V103.069C161.456 101.326 161.697 99.7144 162.181 98.2349C162.664 96.7407 163.382 95.437 164.334 94.3237C165.286 93.2104 166.48 92.3462 167.916 91.731C169.351 91.1011 171.021 90.7861 172.925 90.7861C174.61 90.7861 176.119 91.0571 177.452 91.5991C178.785 92.1411 179.913 92.9175 180.835 93.9282C181.773 94.939 182.483 96.1621 182.967 97.5977C183.465 99.0332 183.714 100.645 183.714 102.432V105.442H164.29V100.806H176.485V100.234C176.5 99.4434 176.36 98.7695 176.067 98.2129C175.789 97.6562 175.379 97.2314 174.837 96.9385C174.295 96.6455 173.636 96.499 172.859 96.499C172.054 96.499 171.387 96.6748 170.86 97.0264C170.347 97.3779 169.944 97.8613 169.651 98.4766C169.373 99.0771 169.175 99.7729 169.058 100.564C168.941 101.355 168.882 102.19 168.882 103.069V103.904C168.882 104.783 169 105.581 169.234 106.299C169.483 107.017 169.834 107.632 170.289 108.145C170.757 108.643 171.314 109.031 171.958 109.309C172.618 109.587 173.365 109.727 174.2 109.727C175.21 109.727 176.207 109.536 177.188 109.155C178.169 108.774 179.012 108.145 179.715 107.266L183.077 111.265C182.593 111.953 181.905 112.62 181.011 113.264C180.132 113.909 179.078 114.436 177.847 114.846C176.617 115.242 175.24 115.439 173.716 115.439ZM195.799 115H188.35V89.292C188.35 87.4463 188.724 85.8936 189.471 84.6338C190.218 83.374 191.272 82.4219 192.635 81.7773C193.997 81.1182 195.608 80.7886 197.469 80.7886C198.113 80.7886 198.721 80.8325 199.292 80.9204C199.864 81.0083 200.42 81.1182 200.962 81.25L200.984 86.6992C200.721 86.626 200.45 86.5747 200.171 86.5454C199.893 86.5161 199.549 86.5015 199.139 86.5015C198.421 86.5015 197.813 86.6113 197.315 86.8311C196.817 87.0361 196.436 87.3511 196.172 87.7759C195.923 88.186 195.799 88.6914 195.799 89.292V115ZM200.413 91.2256V96.3672H184.922V91.2256H200.413ZM210.542 97.1143V115H203.138V91.2256H210.059L210.542 97.1143ZM217.574 91.0498L217.442 97.9272C217.149 97.8979 216.753 97.8613 216.255 97.8174C215.757 97.7734 215.34 97.7515 215.003 97.7515C214.139 97.7515 213.392 97.854 212.762 98.0591C212.146 98.2495 211.634 98.5425 211.224 98.938C210.828 99.3188 210.535 99.8022 210.345 100.388C210.169 100.974 210.088 101.655 210.103 102.432L208.763 101.553C208.763 99.9561 208.917 98.5059 209.224 97.2021C209.546 95.8838 210 94.7485 210.586 93.7964C211.172 92.8296 211.883 92.0898 212.718 91.5771C213.553 91.0498 214.49 90.7861 215.53 90.7861C215.896 90.7861 216.255 90.8081 216.607 90.8521C216.973 90.896 217.295 90.9619 217.574 91.0498ZM231.812 109.023V99.2236C231.812 98.5498 231.717 97.9712 231.526 97.4878C231.336 97.0044 231.036 96.6309 230.625 96.3672C230.215 96.0889 229.666 95.9497 228.978 95.9497C228.421 95.9497 227.945 96.0449 227.549 96.2354C227.154 96.4258 226.854 96.7114 226.648 97.0923C226.443 97.4731 226.341 97.9565 226.341 98.5425H218.936C218.936 97.4438 219.178 96.4258 219.661 95.4883C220.159 94.5361 220.862 93.7085 221.771 93.0054C222.693 92.3022 223.792 91.7603 225.066 91.3794C226.355 90.9839 227.791 90.7861 229.373 90.7861C231.263 90.7861 232.947 91.1011 234.427 91.731C235.921 92.3608 237.1 93.3057 237.964 94.5654C238.829 95.8105 239.261 97.3779 239.261 99.2676V109.001C239.261 110.554 239.349 111.733 239.524 112.539C239.7 113.33 239.949 114.026 240.271 114.626V115H232.845C232.493 114.268 232.229 113.374 232.054 112.319C231.893 111.25 231.812 110.151 231.812 109.023ZM232.713 100.476L232.757 104.431H229.483C228.794 104.431 228.208 104.526 227.725 104.717C227.256 104.907 226.875 105.171 226.583 105.508C226.304 105.83 226.099 106.196 225.967 106.606C225.85 107.017 225.792 107.449 225.792 107.903C225.792 108.342 225.894 108.738 226.099 109.089C226.319 109.426 226.612 109.69 226.978 109.88C227.344 110.071 227.754 110.166 228.208 110.166C229.029 110.166 229.725 110.012 230.296 109.705C230.882 109.382 231.329 108.994 231.636 108.54C231.944 108.086 232.098 107.661 232.098 107.266L233.724 110.298C233.431 110.884 233.094 111.477 232.713 112.078C232.347 112.678 231.885 113.235 231.329 113.748C230.787 114.246 230.12 114.656 229.329 114.978C228.538 115.286 227.579 115.439 226.451 115.439C224.986 115.439 223.638 115.139 222.408 114.539C221.192 113.938 220.218 113.103 219.485 112.034C218.753 110.95 218.387 109.705 218.387 108.298C218.387 107.068 218.606 105.969 219.046 105.002C219.5 104.036 220.181 103.215 221.089 102.542C221.998 101.868 223.155 101.355 224.561 101.003C225.967 100.652 227.623 100.476 229.527 100.476H232.713ZM250.84 96.2573V115H243.436V91.2256H250.379L250.84 96.2573ZM249.939 102.3L248.248 102.344C248.248 100.674 248.445 99.1357 248.841 97.7295C249.236 96.3232 249.822 95.1001 250.599 94.0601C251.375 93.02 252.327 92.2144 253.455 91.6431C254.598 91.0718 255.916 90.7861 257.41 90.7861C258.45 90.7861 259.395 90.9473 260.245 91.2695C261.094 91.5771 261.827 92.0679 262.442 92.7417C263.057 93.4009 263.526 94.2651 263.848 95.3345C264.185 96.3892 264.354 97.6562 264.354 99.1357V115H256.949V100.081C256.949 99.0698 256.832 98.3081 256.597 97.7954C256.377 97.2827 256.055 96.9385 255.63 96.7627C255.206 96.5869 254.686 96.499 254.07 96.499C253.426 96.499 252.847 96.6455 252.334 96.9385C251.822 97.2314 251.382 97.6416 251.016 98.1689C250.665 98.6816 250.394 99.2896 250.203 99.9927C250.027 100.696 249.939 101.465 249.939 102.3ZM263.519 102.3L261.453 102.344C261.453 100.674 261.636 99.1357 262.002 97.7295C262.383 96.3232 262.947 95.1001 263.694 94.0601C264.456 93.02 265.401 92.2144 266.529 91.6431C267.657 91.0718 268.968 90.7861 270.462 90.7861C271.546 90.7861 272.542 90.9473 273.45 91.2695C274.358 91.5918 275.142 92.1118 275.801 92.8296C276.46 93.5474 276.973 94.4995 277.339 95.686C277.706 96.8579 277.889 98.3081 277.889 100.037V115H270.462V100.037C270.462 99.0552 270.345 98.3154 270.11 97.8174C269.891 97.3047 269.568 96.9604 269.144 96.7847C268.719 96.5942 268.213 96.499 267.627 96.499C266.924 96.499 266.316 96.6455 265.804 96.9385C265.291 97.2314 264.859 97.6416 264.507 98.1689C264.17 98.6816 263.921 99.2896 263.76 99.9927C263.599 100.696 263.519 101.465 263.519 102.3ZM293.643 115.439C291.709 115.439 289.981 115.139 288.458 114.539C286.934 113.923 285.645 113.081 284.59 112.012C283.55 110.942 282.752 109.712 282.195 108.32C281.653 106.929 281.382 105.457 281.382 103.904V103.069C281.382 101.326 281.624 99.7144 282.107 98.2349C282.591 96.7407 283.309 95.437 284.261 94.3237C285.213 93.2104 286.407 92.3462 287.842 91.731C289.278 91.1011 290.948 90.7861 292.852 90.7861C294.537 90.7861 296.045 91.0571 297.378 91.5991C298.711 92.1411 299.839 92.9175 300.762 93.9282C301.7 94.939 302.41 96.1621 302.894 97.5977C303.392 99.0332 303.641 100.645 303.641 102.432V105.442H284.217V100.806H296.412V100.234C296.426 99.4434 296.287 98.7695 295.994 98.2129C295.716 97.6562 295.306 97.2314 294.764 96.9385C294.222 96.6455 293.562 96.499 292.786 96.499C291.98 96.499 291.314 96.6748 290.787 97.0264C290.274 97.3779 289.871 97.8613 289.578 98.4766C289.3 99.0771 289.102 99.7729 288.985 100.564C288.868 101.355 288.809 102.19 288.809 103.069V103.904C288.809 104.783 288.926 105.581 289.161 106.299C289.41 107.017 289.761 107.632 290.215 108.145C290.684 108.643 291.241 109.031 291.885 109.309C292.544 109.587 293.292 109.727 294.126 109.727C295.137 109.727 296.133 109.536 297.115 109.155C298.096 108.774 298.938 108.145 299.642 107.266L303.003 111.265C302.52 111.953 301.832 112.62 300.938 113.264C300.059 113.909 299.004 114.436 297.774 114.846C296.543 115.242 295.167 115.439 293.643 115.439ZM319.109 108.32C319.109 107.91 318.97 107.559 318.692 107.266C318.428 106.958 317.959 106.68 317.286 106.431C316.612 106.167 315.667 105.903 314.451 105.64C313.294 105.391 312.203 105.061 311.177 104.651C310.167 104.241 309.28 103.743 308.519 103.157C307.757 102.571 307.156 101.875 306.717 101.069C306.292 100.264 306.08 99.3408 306.08 98.3008C306.08 97.29 306.292 96.3379 306.717 95.4443C307.156 94.5361 307.793 93.7378 308.628 93.0493C309.478 92.3462 310.511 91.7969 311.727 91.4014C312.942 90.9912 314.327 90.7861 315.879 90.7861C318.018 90.7861 319.864 91.1157 321.417 91.7749C322.969 92.4194 324.163 93.3276 324.998 94.4995C325.848 95.6567 326.272 96.9971 326.272 98.5205H318.868C318.868 97.9199 318.765 97.4072 318.56 96.9824C318.37 96.5576 318.055 96.2354 317.615 96.0156C317.176 95.7812 316.59 95.6641 315.857 95.6641C315.345 95.6641 314.876 95.7593 314.451 95.9497C314.041 96.1401 313.711 96.4038 313.462 96.7407C313.213 97.0776 313.089 97.4731 313.089 97.9272C313.089 98.2495 313.162 98.5425 313.309 98.8062C313.47 99.0552 313.711 99.2896 314.034 99.5093C314.356 99.7144 314.766 99.9048 315.264 100.081C315.762 100.242 316.363 100.388 317.066 100.52C318.663 100.813 320.157 101.23 321.548 101.772C322.94 102.314 324.068 103.083 324.932 104.08C325.811 105.076 326.25 106.416 326.25 108.101C326.25 109.155 326.009 110.129 325.525 111.023C325.042 111.902 324.346 112.678 323.438 113.352C322.53 114.011 321.438 114.524 320.164 114.89C318.89 115.256 317.454 115.439 315.857 115.439C313.587 115.439 311.668 115.037 310.101 114.231C308.533 113.411 307.347 112.385 306.541 111.155C305.75 109.91 305.354 108.65 305.354 107.375H312.254C312.283 108.108 312.459 108.708 312.781 109.177C313.118 109.646 313.565 109.99 314.122 110.21C314.678 110.43 315.323 110.54 316.055 110.54C316.729 110.54 317.286 110.444 317.725 110.254C318.179 110.063 318.523 109.807 318.758 109.485C318.992 109.148 319.109 108.76 319.109 108.32Z" fill="#424241"/>
<path d="M1363 15C1363 6.71573 1356.28 0 1348 0H1134V167H1348C1356.28 167 1363 160.284 1363 152V15Z" fill="#FF0000"/>
<path fill-rule="evenodd" clip-rule="evenodd" d="M1203 49C1203 47.8954 1203.9 47 1205 47H1292.5C1293.6 47 1294.5 47.8954 1294.5 49V118.996C1294.5 120.101 1293.6 120.996 1292.5 120.996H1205C1203.9 120.996 1203 120.101 1203 118.996V49ZM1207 51V55.4945H1290.5V51H1207ZM1290.5 59.4945H1235.44V116.996H1290.5V59.4945ZM1231.44 116.996V59.4945H1207V116.996H1231.44Z" fill="white"/>
<path fill-rule="evenodd" clip-rule="evenodd" d="M1209.97 64.8003C1209.97 63.6957 1210.87 62.8003 1211.97 62.8003H1225.97C1227.08 62.8003 1227.97 63.6957 1227.97 64.8003V84.1955C1227.97 85.3001 1227.08 86.1955 1225.97 86.1955H1211.97C1210.87 86.1955 1209.97 85.3001 1209.97 84.1955V64.8003ZM1213.97 66.8003V82.1955H1223.97V66.8003H1213.97ZM1239.58 65.6963C1239.58 64.5917 1240.47 63.6963 1241.58 63.6963H1284.5C1285.61 63.6963 1286.5 64.5917 1286.5 65.6963V111.905C1286.5 113.009 1285.61 113.905 1284.5 113.905H1241.58C1240.47 113.905 1239.58 113.009 1239.58 111.905V65.6963ZM1243.58 67.6963V109.905H1282.5V67.6963H1243.58ZM1209.81 95.9362C1209.81 94.8316 1210.71 93.9362 1211.81 93.9362H1220.73C1221.84 93.9362 1222.73 94.8316 1222.73 95.9362C1222.73 97.0408 1221.84 97.9362 1220.73 97.9362H1211.81C1210.71 97.9362 1209.81 97.0408 1209.81 95.9362ZM1209.81 102.936C1209.81 101.832 1210.71 100.936 1211.81 100.936H1226.35C1227.46 100.936 1228.35 101.832 1228.35 102.936C1228.35 104.041 1227.46 104.936 1226.35 104.936H1211.81C1210.71 104.936 1209.81 104.041 1209.81 102.936ZM1209.81 109.936C1209.81 108.832 1210.71 107.936 1211.81 107.936H1220.73C1221.84 107.936 1222.73 108.832 1222.73 109.936C1222.73 111.041 1221.84 111.936 1220.73 111.936H1211.81C1210.71 111.936 1209.81 111.041 1209.81 109.936Z" fill="white"/>
<path d="M115.58 64V45.8182H127.619V48.9876H119.424V53.32H126.82V56.4893H119.424V64H115.58ZM135.294 64.2663C133.914 64.2663 132.722 63.9734 131.716 63.3874C130.715 62.7956 129.943 61.9729 129.399 60.9194C128.854 59.86 128.582 58.6319 128.582 57.2351C128.582 55.8265 128.854 54.5954 129.399 53.5419C129.943 52.4825 130.715 51.6598 131.716 51.0739C132.722 50.482 133.914 50.1861 135.294 50.1861C136.673 50.1861 137.862 50.482 138.862 51.0739C139.869 51.6598 140.644 52.4825 141.188 53.5419C141.733 54.5954 142.005 55.8265 142.005 57.2351C142.005 58.6319 141.733 59.86 141.188 60.9194C140.644 61.9729 139.869 62.7956 138.862 63.3874C137.862 63.9734 136.673 64.2663 135.294 64.2663ZM135.311 61.3366C135.939 61.3366 136.462 61.1591 136.883 60.804C137.303 60.4429 137.619 59.9517 137.833 59.3303C138.052 58.7088 138.161 58.0015 138.161 57.2085C138.161 56.4154 138.052 55.7081 137.833 55.0866C137.619 54.4652 137.303 53.974 136.883 53.6129C136.462 53.2519 135.939 53.0714 135.311 53.0714C134.678 53.0714 134.145 53.2519 133.713 53.6129C133.287 53.974 132.965 54.4652 132.746 55.0866C132.532 55.7081 132.426 56.4154 132.426 57.2085C132.426 58.0015 132.532 58.7088 132.746 59.3303C132.965 59.9517 133.287 60.4429 133.713 60.804C134.145 61.1591 134.678 61.3366 135.311 61.3366ZM144.464 64V50.3636H148.131V52.7429H148.273C148.521 51.8965 148.939 51.2573 149.525 50.8253C150.111 50.3873 150.785 50.1683 151.549 50.1683C151.738 50.1683 151.942 50.1802 152.161 50.2038C152.38 50.2275 152.573 50.2601 152.738 50.3015V53.6573C152.561 53.604 152.315 53.5567 152.002 53.5153C151.688 53.4738 151.401 53.4531 151.14 53.4531C150.584 53.4531 150.087 53.5745 149.649 53.8171C149.217 54.0539 148.874 54.3853 148.619 54.8114C148.371 55.2376 148.246 55.7288 148.246 56.2852V64H144.464ZM166.04 54.2521L162.577 54.4652C162.518 54.1693 162.391 53.9029 162.196 53.6662C162 53.4235 161.743 53.2312 161.423 53.0891C161.11 52.9412 160.734 52.8672 160.296 52.8672C159.71 52.8672 159.216 52.9915 158.813 53.2401C158.411 53.4827 158.209 53.8082 158.209 54.2166C158.209 54.5421 158.34 54.8174 158.6 55.0423C158.86 55.2672 159.307 55.4477 159.941 55.5838L162.409 56.081C163.734 56.3532 164.723 56.7912 165.374 57.3949C166.025 57.9986 166.35 58.7917 166.35 59.7741C166.35 60.6679 166.087 61.4521 165.56 62.1268C165.039 62.8015 164.323 63.3282 163.412 63.707C162.506 64.0799 161.462 64.2663 160.278 64.2663C158.473 64.2663 157.035 63.8905 155.963 63.1388C154.898 62.3813 154.274 61.3514 154.09 60.0494L157.81 59.854C157.922 60.4045 158.195 60.8247 158.627 61.1147C159.059 61.3988 159.612 61.5408 160.287 61.5408C160.95 61.5408 161.482 61.4136 161.885 61.1591C162.293 60.8987 162.5 60.5643 162.506 60.1559C162.5 59.8126 162.355 59.5315 162.071 59.3125C161.787 59.0876 161.349 58.916 160.757 58.7976L158.396 58.3271C157.064 58.0607 156.073 57.5991 155.422 56.9421C154.777 56.2852 154.454 55.4477 154.454 54.4297C154.454 53.5537 154.691 52.7991 155.164 52.1658C155.644 51.5326 156.315 51.0443 157.18 50.701C158.05 50.3577 159.068 50.1861 160.234 50.1861C161.956 50.1861 163.311 50.5501 164.3 51.2781C165.294 52.006 165.874 52.9974 166.04 54.2521ZM172.62 64.2575C171.75 64.2575 170.975 64.1065 170.294 63.8047C169.614 63.4969 169.075 63.0442 168.679 62.4464C168.288 61.8427 168.093 61.091 168.093 60.1914C168.093 59.4338 168.232 58.7976 168.51 58.2827C168.788 57.7678 169.167 57.3535 169.646 57.0398C170.126 56.7261 170.67 56.4893 171.28 56.3295C171.895 56.1697 172.54 56.0573 173.215 55.9922C174.008 55.9093 174.647 55.8324 175.133 55.7614C175.618 55.6844 175.97 55.572 176.189 55.424C176.408 55.276 176.518 55.0571 176.518 54.767V54.7138C176.518 54.1515 176.34 53.7165 175.985 53.4087C175.636 53.101 175.139 52.9471 174.494 52.9471C173.813 52.9471 173.271 53.098 172.869 53.3999C172.467 53.6958 172.2 54.0687 172.07 54.5185L168.572 54.2344C168.75 53.4058 169.099 52.6896 169.62 52.0859C170.141 51.4763 170.812 51.0088 171.635 50.6832C172.464 50.3518 173.422 50.1861 174.511 50.1861C175.269 50.1861 175.994 50.2749 176.686 50.4524C177.385 50.63 178.003 50.9052 178.542 51.2781C179.086 51.6509 179.516 52.1303 179.829 52.7163C180.143 53.2963 180.3 53.9917 180.3 54.8026V64H176.713V62.109H176.607C176.388 62.5352 176.095 62.911 175.728 63.2365C175.361 63.5561 174.92 63.8076 174.405 63.9911C173.89 64.1687 173.295 64.2575 172.62 64.2575ZM173.703 61.6474C174.26 61.6474 174.751 61.5379 175.177 61.3189C175.603 61.094 175.938 60.7921 176.18 60.4134C176.423 60.0346 176.544 59.6055 176.544 59.1261V57.679C176.426 57.7559 176.263 57.8269 176.056 57.892C175.855 57.9512 175.627 58.0075 175.373 58.0607C175.118 58.1081 174.864 58.1525 174.609 58.1939C174.355 58.2294 174.124 58.262 173.917 58.2915C173.473 58.3567 173.085 58.4602 172.754 58.6023C172.422 58.7443 172.165 58.9367 171.981 59.1793C171.798 59.4161 171.706 59.712 171.706 60.0671C171.706 60.582 171.892 60.9756 172.265 61.2479C172.644 61.5142 173.123 61.6474 173.703 61.6474ZM186.661 60.076L186.67 55.5394H187.22L191.588 50.3636H195.929L190.061 57.2173H189.164L186.661 60.076ZM183.234 64V45.8182H187.016V64H183.234ZM191.757 64L187.744 58.0607L190.265 55.3885L196.187 64H191.757ZM203.438 64.2663C202.035 64.2663 200.828 63.9822 199.815 63.4141C198.809 62.84 198.034 62.0291 197.489 60.9815C196.945 59.928 196.673 58.6822 196.673 57.244C196.673 55.8413 196.945 54.6102 197.489 53.5508C198.034 52.4914 198.8 51.6657 199.789 51.0739C200.783 50.482 201.949 50.1861 203.287 50.1861C204.186 50.1861 205.024 50.3311 205.799 50.6211C206.58 50.9052 207.261 51.3343 207.841 51.9084C208.427 52.4825 208.883 53.2045 209.208 54.0746C209.534 54.9387 209.696 55.9508 209.696 57.1108V58.1495H198.182V55.8058H206.136C206.136 55.2612 206.018 54.7789 205.781 54.3587C205.545 53.9384 205.216 53.61 204.796 53.3732C204.382 53.1306 203.899 53.0092 203.349 53.0092C202.775 53.0092 202.266 53.1424 201.822 53.4087C201.384 53.6692 201.041 54.0213 200.792 54.4652C200.543 54.9032 200.416 55.3915 200.41 55.93V58.1584C200.41 58.8331 200.535 59.4161 200.783 59.9073C201.038 60.3986 201.396 60.7773 201.857 61.0437C202.319 61.31 202.866 61.4432 203.5 61.4432C203.92 61.4432 204.305 61.384 204.654 61.2656C205.003 61.1473 205.302 60.9697 205.551 60.733C205.799 60.4962 205.988 60.2062 206.119 59.8629L209.617 60.0938C209.439 60.9342 209.075 61.6681 208.525 62.2955C207.98 62.9169 207.276 63.4022 206.412 63.7514C205.553 64.0947 204.562 64.2663 203.438 64.2663ZM215.946 56.1165V64H212.165V50.3636H215.769V52.7695H215.929C216.231 51.9764 216.737 51.3491 217.447 50.8874C218.157 50.4199 219.018 50.1861 220.03 50.1861C220.977 50.1861 221.803 50.3932 222.507 50.8075C223.212 51.2218 223.759 51.8137 224.15 52.5831C224.54 53.3466 224.736 54.258 224.736 55.3175V64H220.954V55.9922C220.959 55.1577 220.746 54.5066 220.314 54.0391C219.882 53.5656 219.287 53.3288 218.53 53.3288C218.021 53.3288 217.571 53.4383 217.18 53.6573C216.796 53.8763 216.494 54.1959 216.275 54.6161C216.062 55.0304 215.952 55.5305 215.946 56.1165Z" fill="#959595"/>
</svg>
