<svg width="1363" height="167" viewBox="0 0 1363 167" fill="none" xmlns="http://www.w3.org/2000/svg">
<path d="M1348 0H15C6.71573 0 0 6.71573 0 15V152C0 160.284 6.71573 167 15 167H1348C1356.28 167 1363 160.284 1363 152V15C1363 6.71573 1356.28 0 1348 0Z" fill="#F0F0F0"/>
<path d="M0 15C0 6.71573 6.71573 0 15 0H37V167H15C6.71573 167 0 160.284 0 152V15Z" fill="#FF0000"/>
<path d="M115.994 95.708V101.641H99.5806V95.708H115.994ZM102.151 83.0078V115H94.439V83.0078H102.151ZM121.18 83.0078V115H113.489V83.0078H121.18ZM124.805 103.354V102.893C124.805 101.15 125.054 99.5459 125.552 98.0811C126.05 96.6016 126.783 95.3198 127.75 94.2358C128.716 93.1519 129.91 92.3096 131.331 91.709C132.752 91.0938 134.393 90.7861 136.253 90.7861C138.128 90.7861 139.776 91.0938 141.197 91.709C142.632 92.3096 143.833 93.1519 144.8 94.2358C145.767 95.3198 146.5 96.6016 146.998 98.0811C147.496 99.5459 147.745 101.15 147.745 102.893V103.354C147.745 105.083 147.496 106.687 146.998 108.167C146.5 109.631 145.767 110.913 144.8 112.012C143.833 113.096 142.64 113.938 141.219 114.539C139.798 115.139 138.157 115.439 136.297 115.439C134.437 115.439 132.789 115.139 131.353 114.539C129.917 113.938 128.716 113.096 127.75 112.012C126.783 110.913 126.05 109.631 125.552 108.167C125.054 106.687 124.805 105.083 124.805 103.354ZM132.21 102.893V103.354C132.21 104.248 132.276 105.083 132.408 105.859C132.54 106.636 132.759 107.317 133.067 107.903C133.375 108.474 133.792 108.921 134.319 109.243C134.847 109.565 135.506 109.727 136.297 109.727C137.073 109.727 137.718 109.565 138.23 109.243C138.758 108.921 139.175 108.474 139.483 107.903C139.791 107.317 140.01 106.636 140.142 105.859C140.274 105.083 140.34 104.248 140.34 103.354V102.893C140.34 102.029 140.274 101.216 140.142 100.454C140.01 99.6777 139.791 98.9966 139.483 98.4106C139.175 97.8101 138.758 97.3413 138.23 97.0044C137.703 96.6675 137.044 96.499 136.253 96.499C135.477 96.499 134.825 96.6675 134.297 97.0044C133.785 97.3413 133.375 97.8101 133.067 98.4106C132.759 98.9966 132.54 99.6777 132.408 100.454C132.276 101.216 132.21 102.029 132.21 102.893ZM158.27 107.925L162.664 91.2256H167.3L165.652 99.5972L161.302 115H157.588L158.27 107.925ZM156.534 91.2256L159.258 107.793L159.566 115H155.062L149.437 91.2256H156.534ZM171.211 107.441L173.958 91.2256H181.055L175.474 115H170.97L171.211 107.441ZM167.828 91.2256L172.266 107.881L172.947 115H169.19L164.927 99.6411L163.345 91.2256H167.828ZM209.466 83.0078V115H201.753V83.0078H209.466ZM219.09 83.0078V88.9624H192.349V83.0078H219.09ZM216.475 103.354V102.893C216.475 101.15 216.724 99.5459 217.222 98.0811C217.72 96.6016 218.453 95.3198 219.419 94.2358C220.386 93.1519 221.58 92.3096 223.001 91.709C224.422 91.0938 226.062 90.7861 227.923 90.7861C229.798 90.7861 231.446 91.0938 232.867 91.709C234.302 92.3096 235.503 93.1519 236.47 94.2358C237.437 95.3198 238.169 96.6016 238.667 98.0811C239.166 99.5459 239.415 101.15 239.415 102.893V103.354C239.415 105.083 239.166 106.687 238.667 108.167C238.169 109.631 237.437 110.913 236.47 112.012C235.503 113.096 234.31 113.938 232.889 114.539C231.468 115.139 229.827 115.439 227.967 115.439C226.106 115.439 224.458 115.139 223.023 114.539C221.587 113.938 220.386 113.096 219.419 112.012C218.453 110.913 217.72 109.631 217.222 108.167C216.724 106.687 216.475 105.083 216.475 103.354ZM223.88 102.893V103.354C223.88 104.248 223.946 105.083 224.078 105.859C224.209 106.636 224.429 107.317 224.737 107.903C225.044 108.474 225.462 108.921 225.989 109.243C226.517 109.565 227.176 109.727 227.967 109.727C228.743 109.727 229.388 109.565 229.9 109.243C230.428 108.921 230.845 108.474 231.153 107.903C231.46 107.317 231.68 106.636 231.812 105.859C231.944 105.083 232.01 104.248 232.01 103.354V102.893C232.01 102.029 231.944 101.216 231.812 100.454C231.68 99.6777 231.46 98.9966 231.153 98.4106C230.845 97.8101 230.428 97.3413 229.9 97.0044C229.373 96.6675 228.714 96.499 227.923 96.499C227.146 96.499 226.495 96.6675 225.967 97.0044C225.455 97.3413 225.044 97.8101 224.737 98.4106C224.429 98.9966 224.209 99.6777 224.078 100.454C223.946 101.216 223.88 102.029 223.88 102.893ZM254.268 83.0078H266.858C269.319 83.0078 271.458 83.374 273.274 84.1064C275.091 84.8389 276.49 85.9229 277.471 87.3584C278.467 88.7939 278.965 90.5664 278.965 92.6758C278.965 94.5068 278.68 96.0376 278.108 97.2681C277.537 98.4985 276.739 99.5166 275.713 100.322C274.703 101.113 273.523 101.765 272.176 102.278L269.649 103.706H259.08L259.036 97.7515H266.858C267.84 97.7515 268.653 97.5757 269.297 97.2241C269.942 96.8726 270.425 96.3745 270.748 95.73C271.084 95.0708 271.253 94.2871 271.253 93.3789C271.253 92.4561 271.084 91.665 270.748 91.0059C270.411 90.3467 269.913 89.8413 269.253 89.4897C268.609 89.1382 267.811 88.9624 266.858 88.9624H261.98V115H254.268V83.0078ZM271.78 115L264.705 100.85L272.879 100.806L280.042 114.67V115H271.78ZM297.159 109.221V91.2256H304.585V115H297.642L297.159 109.221ZM297.862 104.387L299.795 104.343C299.795 105.94 299.605 107.419 299.224 108.782C298.843 110.129 298.279 111.301 297.532 112.297C296.8 113.293 295.892 114.07 294.808 114.626C293.738 115.168 292.5 115.439 291.094 115.439C289.922 115.439 288.846 115.278 287.864 114.956C286.897 114.619 286.062 114.099 285.359 113.396C284.656 112.678 284.107 111.763 283.711 110.649C283.331 109.521 283.14 108.174 283.14 106.606V91.2256H290.545V106.65C290.545 107.178 290.611 107.632 290.743 108.013C290.875 108.394 291.065 108.716 291.314 108.979C291.563 109.229 291.871 109.419 292.237 109.551C292.618 109.668 293.05 109.727 293.533 109.727C294.646 109.727 295.518 109.492 296.148 109.023C296.778 108.555 297.217 107.917 297.466 107.112C297.73 106.306 297.862 105.398 297.862 104.387ZM315.945 96.3013V115H308.541V91.2256H315.484L315.945 96.3013ZM315.066 102.3L313.331 102.344C313.331 100.527 313.55 98.9087 313.99 97.4878C314.429 96.0522 315.052 94.8364 315.857 93.8403C316.663 92.8442 317.623 92.0898 318.736 91.5771C319.864 91.0498 321.116 90.7861 322.493 90.7861C323.592 90.7861 324.595 90.9473 325.503 91.2695C326.426 91.5918 327.217 92.1118 327.876 92.8296C328.55 93.5474 329.063 94.4995 329.415 95.686C329.781 96.8579 329.964 98.3081 329.964 100.037V115H322.515V100.015C322.515 99.0625 322.383 98.3374 322.12 97.8394C321.856 97.3267 321.475 96.9751 320.977 96.7847C320.479 96.5942 319.871 96.499 319.153 96.499C318.392 96.499 317.747 96.6455 317.22 96.9385C316.692 97.2314 316.268 97.6416 315.945 98.1689C315.638 98.6816 315.411 99.2896 315.264 99.9927C315.132 100.696 315.066 101.465 315.066 102.3ZM345.85 104.871H339.544C339.544 103.582 339.632 102.446 339.808 101.465C339.998 100.469 340.32 99.5752 340.774 98.7842C341.229 97.9932 341.844 97.2607 342.62 96.5869C343.309 96.0156 343.902 95.4663 344.4 94.939C344.898 94.4116 345.279 93.877 345.542 93.335C345.806 92.793 345.938 92.2144 345.938 91.5991C345.938 90.8374 345.828 90.2148 345.608 89.7314C345.403 89.248 345.088 88.8892 344.664 88.6548C344.253 88.4058 343.733 88.2812 343.104 88.2812C342.591 88.2812 342.107 88.4058 341.653 88.6548C341.214 88.9038 340.855 89.292 340.577 89.8193C340.298 90.332 340.145 91.0132 340.115 91.8628H332.667C332.71 89.6802 333.194 87.9077 334.117 86.5454C335.054 85.1685 336.299 84.165 337.852 83.5352C339.419 82.8906 341.17 82.5684 343.104 82.5684C345.242 82.5684 347.081 82.8979 348.619 83.5571C350.157 84.2163 351.336 85.1978 352.156 86.5015C352.977 87.7905 353.387 89.3799 353.387 91.2695C353.387 92.5293 353.145 93.6279 352.662 94.5654C352.193 95.4883 351.556 96.3525 350.75 97.1582C349.959 97.9492 349.073 98.7988 348.091 99.707C347.242 100.454 346.663 101.216 346.355 101.992C346.048 102.754 345.879 103.713 345.85 104.871ZM338.643 111.55C338.643 110.496 339.024 109.617 339.786 108.914C340.547 108.196 341.536 107.837 342.752 107.837C343.968 107.837 344.957 108.196 345.718 108.914C346.48 109.617 346.861 110.496 346.861 111.55C346.861 112.605 346.48 113.491 345.718 114.209C344.957 114.912 343.968 115.264 342.752 115.264C341.536 115.264 340.547 114.912 339.786 114.209C339.024 113.491 338.643 112.605 338.643 111.55Z" fill="#424241"/>
<path d="M1363 15C1363 6.71573 1356.28 0 1348 0H1134V167H1348C1356.28 167 1363 160.284 1363 152V15Z" fill="#FF0000"/>
<path d="M1260.77 81.3079C1263.96 81.3079 1267.09 82.2553 1269.74 84.0303C1272.4 85.8053 1274.47 88.3282 1275.69 91.2799C1276.92 94.2317 1277.24 97.4797 1276.61 100.613C1275.99 103.747 1274.45 106.625 1272.19 108.884C1269.93 111.143 1267.05 112.682 1263.92 113.305C1260.79 113.928 1257.54 113.609 1254.59 112.386C1251.64 111.163 1249.11 109.093 1247.34 106.436C1245.56 103.78 1244.62 100.657 1244.62 97.4617C1244.62 93.1775 1246.32 89.0687 1249.35 86.0393C1252.38 83.0099 1256.49 81.3079 1260.77 81.3079ZM1260.77 75.9233C1256.51 75.9233 1252.35 77.1865 1248.8 79.5532C1245.26 81.9199 1242.5 85.2837 1240.87 89.2193C1239.24 93.155 1238.81 97.4856 1239.64 101.664C1240.48 105.842 1242.53 109.679 1245.54 112.692C1248.55 115.704 1252.39 117.755 1256.57 118.586C1260.75 119.417 1265.08 118.991 1269.01 117.361C1272.95 115.73 1276.31 112.97 1278.68 109.428C1281.04 105.886 1282.31 101.722 1282.31 97.4617C1282.31 91.7494 1280.04 86.271 1276 82.2318C1271.96 78.1926 1266.48 75.9233 1260.77 75.9233Z" fill="white"/>
<path d="M1274.23 49H1220.38C1218.96 49 1217.59 49.5673 1216.58 50.5771C1215.57 51.5869 1215 52.9565 1215 54.3846V108.231C1215 109.659 1215.57 111.028 1216.58 112.038C1217.59 113.048 1218.96 113.615 1220.38 113.615H1231.15V108.231H1220.38V70.5384H1279.62V54.3846C1279.62 52.9565 1279.05 51.5869 1278.04 50.5771C1277.03 49.5673 1275.66 49 1274.23 49ZM1220.38 65.1538V54.3846H1274.23V65.1538H1220.38Z" fill="white"/>
<path d="M1255.38 89.3848V105.539L1268.85 97.4617L1255.38 89.3848Z" fill="white"/>
<path d="M100.511 54.9219L93 52.2383V49.0859L103.207 53.375V55.6367L100.511 54.9219ZM93 57.1719L100.523 54.4297L103.207 53.7852V56.0352L93 60.3242V57.1719Z" fill="#888888"/>
<path d="M115.58 64V45.8182H127.619V48.9876H119.424V53.32H126.82V56.4893H119.424V64H115.58ZM135.294 64.2663C133.914 64.2663 132.722 63.9734 131.716 63.3874C130.715 62.7956 129.943 61.9729 129.399 60.9194C128.854 59.86 128.582 58.6319 128.582 57.2351C128.582 55.8265 128.854 54.5954 129.399 53.5419C129.943 52.4825 130.715 51.6598 131.716 51.0739C132.722 50.482 133.914 50.1861 135.294 50.1861C136.673 50.1861 137.862 50.482 138.862 51.0739C139.869 51.6598 140.644 52.4825 141.188 53.5419C141.733 54.5954 142.005 55.8265 142.005 57.2351C142.005 58.6319 141.733 59.86 141.188 60.9194C140.644 61.9729 139.869 62.7956 138.862 63.3874C137.862 63.9734 136.673 64.2663 135.294 64.2663ZM135.311 61.3366C135.939 61.3366 136.462 61.1591 136.883 60.804C137.303 60.4429 137.619 59.9517 137.833 59.3303C138.052 58.7088 138.161 58.0015 138.161 57.2085C138.161 56.4154 138.052 55.7081 137.833 55.0866C137.619 54.4652 137.303 53.974 136.883 53.6129C136.462 53.2519 135.939 53.0714 135.311 53.0714C134.678 53.0714 134.145 53.2519 133.713 53.6129C133.287 53.974 132.965 54.4652 132.746 55.0866C132.532 55.7081 132.426 56.4154 132.426 57.2085C132.426 58.0015 132.532 58.7088 132.746 59.3303C132.965 59.9517 133.287 60.4429 133.713 60.804C134.145 61.1591 134.678 61.3366 135.311 61.3366ZM144.464 64V50.3636H148.131V52.7429H148.273C148.521 51.8965 148.939 51.2573 149.525 50.8253C150.111 50.3873 150.785 50.1683 151.549 50.1683C151.738 50.1683 151.942 50.1802 152.161 50.2038C152.38 50.2275 152.573 50.2601 152.738 50.3015V53.6573C152.561 53.604 152.315 53.5567 152.002 53.5153C151.688 53.4738 151.401 53.4531 151.14 53.4531C150.584 53.4531 150.087 53.5745 149.649 53.8171C149.217 54.0539 148.874 54.3853 148.619 54.8114C148.371 55.2376 148.246 55.7288 148.246 56.2852V64H144.464ZM166.04 54.2521L162.577 54.4652C162.518 54.1693 162.391 53.9029 162.196 53.6662C162 53.4235 161.743 53.2312 161.423 53.0891C161.11 52.9412 160.734 52.8672 160.296 52.8672C159.71 52.8672 159.216 52.9915 158.813 53.2401C158.411 53.4827 158.209 53.8082 158.209 54.2166C158.209 54.5421 158.34 54.8174 158.6 55.0423C158.86 55.2672 159.307 55.4477 159.941 55.5838L162.409 56.081C163.734 56.3532 164.723 56.7912 165.374 57.3949C166.025 57.9986 166.35 58.7917 166.35 59.7741C166.35 60.6679 166.087 61.4521 165.56 62.1268C165.039 62.8015 164.323 63.3282 163.412 63.707C162.506 64.0799 161.462 64.2663 160.278 64.2663C158.473 64.2663 157.035 63.8905 155.963 63.1388C154.898 62.3813 154.274 61.3514 154.09 60.0494L157.81 59.854C157.922 60.4045 158.195 60.8247 158.627 61.1147C159.059 61.3988 159.612 61.5408 160.287 61.5408C160.95 61.5408 161.482 61.4136 161.885 61.1591C162.293 60.8987 162.5 60.5643 162.506 60.1559C162.5 59.8126 162.355 59.5315 162.071 59.3125C161.787 59.0876 161.349 58.916 160.757 58.7976L158.396 58.3271C157.064 58.0607 156.073 57.5991 155.422 56.9421C154.777 56.2852 154.454 55.4477 154.454 54.4297C154.454 53.5537 154.691 52.7991 155.164 52.1658C155.644 51.5326 156.315 51.0443 157.18 50.701C158.05 50.3577 159.068 50.1861 160.234 50.1861C161.956 50.1861 163.311 50.5501 164.3 51.2781C165.294 52.006 165.874 52.9974 166.04 54.2521ZM172.62 64.2575C171.75 64.2575 170.975 64.1065 170.294 63.8047C169.614 63.4969 169.075 63.0442 168.679 62.4464C168.288 61.8427 168.093 61.091 168.093 60.1914C168.093 59.4338 168.232 58.7976 168.51 58.2827C168.788 57.7678 169.167 57.3535 169.646 57.0398C170.126 56.7261 170.67 56.4893 171.28 56.3295C171.895 56.1697 172.54 56.0573 173.215 55.9922C174.008 55.9093 174.647 55.8324 175.133 55.7614C175.618 55.6844 175.97 55.572 176.189 55.424C176.408 55.276 176.518 55.0571 176.518 54.767V54.7138C176.518 54.1515 176.34 53.7165 175.985 53.4087C175.636 53.101 175.139 52.9471 174.494 52.9471C173.813 52.9471 173.271 53.098 172.869 53.3999C172.467 53.6958 172.2 54.0687 172.07 54.5185L168.572 54.2344C168.75 53.4058 169.099 52.6896 169.62 52.0859C170.141 51.4763 170.812 51.0088 171.635 50.6832C172.464 50.3518 173.422 50.1861 174.511 50.1861C175.269 50.1861 175.994 50.2749 176.686 50.4524C177.385 50.63 178.003 50.9052 178.542 51.2781C179.086 51.6509 179.516 52.1303 179.829 52.7163C180.143 53.2963 180.3 53.9917 180.3 54.8026V64H176.713V62.109H176.607C176.388 62.5352 176.095 62.911 175.728 63.2365C175.361 63.5561 174.92 63.8076 174.405 63.9911C173.89 64.1687 173.295 64.2575 172.62 64.2575ZM173.703 61.6474C174.26 61.6474 174.751 61.5379 175.177 61.3189C175.603 61.094 175.938 60.7921 176.18 60.4134C176.423 60.0346 176.544 59.6055 176.544 59.1261V57.679C176.426 57.7559 176.263 57.8269 176.056 57.892C175.855 57.9512 175.627 58.0075 175.373 58.0607C175.118 58.1081 174.864 58.1525 174.609 58.1939C174.355 58.2294 174.124 58.262 173.917 58.2915C173.473 58.3567 173.085 58.4602 172.754 58.6023C172.422 58.7443 172.165 58.9367 171.981 59.1793C171.798 59.4161 171.706 59.712 171.706 60.0671C171.706 60.582 171.892 60.9756 172.265 61.2479C172.644 61.5142 173.123 61.6474 173.703 61.6474ZM186.661 60.076L186.67 55.5394H187.22L191.588 50.3636H195.929L190.061 57.2173H189.164L186.661 60.076ZM183.234 64V45.8182H187.016V64H183.234ZM191.757 64L187.744 58.0607L190.265 55.3885L196.187 64H191.757ZM203.438 64.2663C202.035 64.2663 200.828 63.9822 199.815 63.4141C198.809 62.84 198.034 62.0291 197.489 60.9815C196.945 59.928 196.673 58.6822 196.673 57.244C196.673 55.8413 196.945 54.6102 197.489 53.5508C198.034 52.4914 198.8 51.6657 199.789 51.0739C200.783 50.482 201.949 50.1861 203.287 50.1861C204.186 50.1861 205.024 50.3311 205.799 50.6211C206.58 50.9052 207.261 51.3343 207.841 51.9084C208.427 52.4825 208.883 53.2045 209.208 54.0746C209.534 54.9387 209.696 55.9508 209.696 57.1108V58.1495H198.182V55.8058H206.136C206.136 55.2612 206.018 54.7789 205.781 54.3587C205.545 53.9384 205.216 53.61 204.796 53.3732C204.382 53.1306 203.899 53.0092 203.349 53.0092C202.775 53.0092 202.266 53.1424 201.822 53.4087C201.384 53.6692 201.041 54.0213 200.792 54.4652C200.543 54.9032 200.416 55.3915 200.41 55.93V58.1584C200.41 58.8331 200.535 59.4161 200.783 59.9073C201.038 60.3986 201.396 60.7773 201.857 61.0437C202.319 61.31 202.866 61.4432 203.5 61.4432C203.92 61.4432 204.305 61.384 204.654 61.2656C205.003 61.1473 205.302 60.9697 205.551 60.733C205.799 60.4962 205.988 60.2062 206.119 59.8629L209.617 60.0938C209.439 60.9342 209.075 61.6681 208.525 62.2955C207.98 62.9169 207.276 63.4022 206.412 63.7514C205.553 64.0947 204.562 64.2663 203.438 64.2663ZM215.946 56.1165V64H212.165V50.3636H215.769V52.7695H215.929C216.231 51.9764 216.737 51.3491 217.447 50.8874C218.157 50.4199 219.018 50.1861 220.03 50.1861C220.977 50.1861 221.803 50.3932 222.507 50.8075C223.212 51.2218 223.759 51.8137 224.15 52.5831C224.54 53.3466 224.736 54.258 224.736 55.3175V64H220.954V55.9922C220.959 55.1577 220.746 54.5066 220.314 54.0391C219.882 53.5656 219.287 53.3288 218.53 53.3288C218.021 53.3288 217.571 53.4383 217.18 53.6573C216.796 53.8763 216.494 54.1959 216.275 54.6161C216.062 55.0304 215.952 55.5305 215.946 56.1165Z" fill="#959595"/>
</svg>
